<?xml version="1.0" encoding="UTF-8" standalone="no"?>
<!-- Created with Sodipodi ("http://www.sodipodi.com/") -->
<svg
   xmlns:xml="http://www.w3.org/XML/1998/namespace"
   xmlns:svg="http://www.w3.org/2000/svg"
   xmlns="http://www.w3.org/2000/svg"
   xmlns:sodipodi="http://inkscape.sourceforge.net/DTD/sodipodi-0.dtd"
   xmlns:inkscape="http://www.inkscape.org/namespaces/inkscape"
   inkscape:version="0.41"
   sodipodi:docbase="/mnt/vdrsrc/xxv/devlop/XXV-Skins/stone/images/artwork"
   sodipodi:docname="back.svg"
   sodipodi:version="0.32"
   id="svg581"
   xml:space="preserve"
   style="overflow:visible;enable-background:new 0 0 256 256"
   viewBox="0 0 256 256"
   height="48pt"
   width="48pt">
  <defs
     id="defs616" />
  <sodipodi:namedview
     inkscape:current-layer="svg581"
     inkscape:window-y="0"
     inkscape:window-x="0"
     inkscape:window-height="949"
     inkscape:window-width="1175"
     inkscape:cy="24.000000"
     inkscape:cx="24.000000"
     inkscape:zoom="7.4791667"
     id="base" />
  <g
     transform="translate(0.356546,0.356546)"
     id="Layer_1">
    <path
       id="path584"
       d="M 144.27200,21.158000 C 144.27000,21.159000 141.39300,22.931000 141.39300,22.931000 C 138.37000,24.792000 111.07700,41.718000 83.964000,62.636000 C 45.366000,92.417000 27.388000,114.14000 27.388000,131.00000 L 27.388000,131.00000 C 27.388000,147.85900 45.366000,169.58200 83.965000,199.36200 C 111.13100,220.32100 138.37600,237.21200 141.39400,239.06800 L 144.27500,240.84100 C 146.84000,242.42300 150.06900,242.49100 152.70000,241.02000 C 155.33100,239.54900 156.96500,236.76400 156.96500,233.75200 C 156.96500,233.75200 156.96500,191.26700 156.96500,185.02300 C 163.47200,185.02300 226.28800,185.02300 226.28800,185.02300 C 230.87900,185.02300 234.61300,181.28900 234.61300,176.69900 L 234.61300,85.302000 C 234.61300,80.712000 230.87900,76.977000 226.28800,76.977000 C 226.28800,76.977000 163.47200,76.977000 156.96500,76.977000 C 156.96500,70.734000 156.96500,28.248000 156.96500,28.248000 C 156.96500,25.234000 155.33000,22.449000 152.69700,20.980000 C 150.06800,19.509000 146.84000,19.577000 144.27200,21.158000 z "
       style="opacity:0.20000000;" />
    <path
       id="path585"
       d="M 142.27200,20.158000 C 142.27000,20.159000 139.39300,21.931000 139.39300,21.931000 C 136.37000,23.792000 109.07700,40.718000 81.964000,61.636000 C 43.366000,91.417000 25.388000,113.14000 25.388000,130.00000 L 25.388000,130.00000 C 25.388000,146.85900 43.366000,168.58200 81.965000,198.36200 C 109.13100,219.32100 136.37600,236.21200 139.39400,238.06800 L 142.27500,239.84100 C 144.84000,241.42300 148.06900,241.49100 150.70000,240.02000 C 153.33100,238.54900 154.96500,235.76400 154.96500,232.75200 C 154.96500,232.75200 154.96500,190.26700 154.96500,184.02300 C 161.47200,184.02300 224.28800,184.02300 224.28800,184.02300 C 228.87900,184.02300 232.61300,180.28900 232.61300,175.69900 L 232.61300,84.302000 C 232.61300,79.712000 228.87900,75.977000 224.28800,75.977000 C 224.28800,75.977000 161.47200,75.977000 154.96500,75.977000 C 154.96500,69.734000 154.96500,27.248000 154.96500,27.248000 C 154.96500,24.234000 153.33000,21.449000 150.69700,19.980000 C 148.06800,18.509000 144.84000,18.577000 142.27200,20.158000 z "
       style="opacity:0.20000000;" />
    <linearGradient
       y2="188.43230"
       x2="204.80099"
       y1="67.090302"
       x1="83.459000"
       gradientUnits="userSpaceOnUse"
       id="XMLID_5_">
      <stop
         id="stop587"
         style="stop-color:#0066CC"
         offset="0" />
      <stop
         id="stop588"
         style="stop-color:#003399"
         offset="1" />
    </linearGradient>
    <path
       id="path592"
       d="M 141.27200,18.158000 C 141.27000,18.159000 138.39300,19.931000 138.39300,19.931000 C 135.37000,21.792000 108.07700,38.718000 80.964000,59.636000 C 42.366000,89.417000 24.388000,111.14000 24.388000,128.00000 L 24.388000,128.00000 C 24.388000,144.85900 42.366000,166.58200 80.965000,196.36200 C 108.13100,217.32100 135.37600,234.21200 138.39400,236.06800 L 141.27500,237.84100 C 143.84000,239.42300 147.06900,239.49100 149.70000,238.02000 C 152.33100,236.54900 153.96500,233.76400 153.96500,230.75200 C 153.96500,230.75200 153.96500,188.26700 153.96500,182.02300 C 160.47200,182.02300 223.28800,182.02300 223.28800,182.02300 C 227.87900,182.02300 231.61300,178.28900 231.61300,173.69900 L 231.61300,82.302000 C 231.61300,77.712000 227.87900,73.977000 223.28800,73.977000 C 223.28800,73.977000 160.47200,73.977000 153.96500,73.977000 C 153.96500,67.734000 153.96500,25.248000 153.96500,25.248000 C 153.96500,22.234000 152.33000,19.449000 149.69700,17.980000 C 147.06800,16.509000 143.84000,16.577000 141.27200,18.158000 z "
       style="fill:url(#XMLID_5_);" />
    <linearGradient
       y2="188.39371"
       x2="204.80679"
       y1="66.984901"
       x1="83.397903"
       gradientUnits="userSpaceOnUse"
       id="XMLID_6_">
      <stop
         id="stop594"
         style="stop-color:#FFFFFF"
         offset="0" />
      <stop
         id="stop595"
         style="stop-color:#F0F0F0"
         offset="1" />
    </linearGradient>
    <path
       id="path599"
       d="M 142.75800,27.021000 C 138.26400,29.787000 32.713000,95.148000 32.713000,128.00000 C 32.713000,160.85200 138.26400,226.21300 142.75800,228.97900 L 145.63900,230.75200 C 145.63900,230.75200 145.63900,177.22500 145.63900,173.69800 C 149.23800,173.69800 223.28700,173.69800 223.28700,173.69800 L 223.28700,82.302000 C 223.28700,82.302000 149.23700,82.302000 145.63900,82.302000 C 145.63900,78.775000 145.63900,25.247000 145.63900,25.247000 L 142.75800,27.021000 z "
       style="fill:url(#XMLID_6_);" />
    <linearGradient
       y2="189.30589"
       x2="203.90990"
       y1="67.967300"
       x1="82.571297"
       gradientUnits="userSpaceOnUse"
       id="XMLID_7_">
      <stop
         id="stop601"
         style="stop-color:#FFFFFF"
         offset="0" />
      <stop
         id="stop602"
         style="stop-color:#DFDFDF"
         offset="1" />
    </linearGradient>
    <path
       id="path606"
       d="M 39.013000,128.00000 C 39.013000,148.50500 97.944000,193.10000 139.33900,219.40200 C 139.33900,204.83700 139.33900,167.39800 139.33900,167.39800 C 139.33900,167.39800 206.35000,167.39800 216.98700,167.39800 C 216.98700,157.28400 216.98700,98.715000 216.98700,88.601000 C 206.34900,88.601000 139.33900,88.601000 139.33900,88.601000 C 139.33900,88.601000 139.33900,51.162000 139.33900,36.596000 C 97.944000,62.896000 39.013000,107.48800 39.013000,128.00000 z "
       style="fill:url(#XMLID_7_);" />
    <linearGradient
       y2="184.88220"
       x2="195.35651"
       y1="92.283699"
       x1="102.75830"
       gradientUnits="userSpaceOnUse"
       id="XMLID_8_">
      <stop
         id="stop608"
         style="stop-color:#428AFF"
         offset="0" />
      <stop
         id="stop609"
         style="stop-color:#003399"
         offset="1" />
    </linearGradient>
    <path
       id="path613"
       d="M 100.26400,80.997000 L 100.26400,80.997000 C 60.619000,111.26200 54.123000,125.27800 53.174000,128.00200 C 54.125000,130.72800 60.630000,144.74500 100.26400,175.00200 C 107.89400,180.82800 116.30700,186.90500 125.29800,193.11200 C 125.29800,182.05000 125.29800,153.35900 125.29800,153.35900 C 125.29800,153.35900 194.96000,153.35900 202.94700,153.35900 C 202.94700,146.29200 202.94700,109.70900 202.94700,102.64100 C 194.96000,102.64100 125.29800,102.64100 125.29800,102.64100 C 125.29800,102.64100 125.29800,73.949000 125.29800,62.887000 C 116.31300,69.090000 107.90100,75.167000 100.26400,80.997000 z "
       style="fill:url(#XMLID_8_);" />
  </g>
</svg>
