<?xml version="1.0" encoding="UTF-8" standalone="no"?>
<!-- Created with Sodipodi ("http://www.sodipodi.com/") -->
<svg
   xmlns:xml="http://www.w3.org/XML/1998/namespace"
   xmlns:dc="http://purl.org/dc/elements/1.1/"
   xmlns:cc="http://web.resource.org/cc/"
   xmlns:rdf="http://www.w3.org/1999/02/22-rdf-syntax-ns#"
   xmlns:svg="http://www.w3.org/2000/svg"
   xmlns="http://www.w3.org/2000/svg"
   xmlns:xlink="http://www.w3.org/1999/xlink"
   xmlns:sodipodi="http://inkscape.sourceforge.net/DTD/sodipodi-0.dtd"
   xmlns:inkscape="http://www.inkscape.org/namespaces/inkscape"
   inkscape:export-ydpi="24.000000"
   inkscape:export-xdpi="24.000000"
   inkscape:export-filename="/mnt/vdrsrc/xxv/devlop/XXV-Skins/stone/images/cut.png"
   width="48pt"
   height="48pt"
   viewBox="0 0 256 256"
   overflow="visible"
   enable-background="new 0 0 256 256"
   xml:space="preserve"
   id="svg548"
   sodipodi:version="0.32"
   sodipodi:docname="cut.svg"
   sodipodi:docbase="/mnt/vdrsrc/xxv/devlop/XXV-Skins/stone/images/artwork"
   inkscape:version="0.41">
  <metadata
     id="metadata57">
    <rdf:RDF
       id="RDF59">
      <cc:Work
         id="Work61"
         rdf:about="">
        <dc:format
           id="format63">image/svg+xml</dc:format>
        <dc:type
           rdf:resource="http://purl.org/dc/dcmitype/StillImage"
           id="type65" />
      </cc:Work>
    </rdf:RDF>
  </metadata>
  <defs
     id="defs627">
    <linearGradient
       id="XMLID_1_"
       gradientUnits="userSpaceOnUse"
       x1="169.873"
       y1="105.0996"
       x2="176.0432"
       y2="137.0723">
      <stop
         offset="0"
         style="stop-color:#BBBBBB"
         id="stop563" />
      <stop
         offset="1"
         style="stop-color:#BBBBBB"
         id="stop564" />
    </linearGradient>
    <linearGradient
       id="XMLID_2_"
       gradientUnits="userSpaceOnUse"
       x1="171.6855"
       y1="83"
       x2="171.6855"
       y2="158.5">
      <stop
         offset="0"
         style="stop-color:#FFFFFF"
         id="stop570" />
      <stop
         offset="1"
         style="stop-color:#000000"
         id="stop571" />
    </linearGradient>
    <linearGradient
       id="XMLID_3_"
       gradientUnits="userSpaceOnUse"
       x1="8.4751"
       y1="142.3682"
       x2="103.5664"
       y2="142.3682">
      <stop
         offset="0.0000000"
         style="stop-color:#9999ff;stop-opacity:1.0000000;"
         id="stop577" />
      <stop
         offset="0.79780000"
         style="stop-color:#3333ff;stop-opacity:1.0000000;"
         id="stop578" />
      <stop
         offset="1.0000000"
         style="stop-color:#3333cc;stop-opacity:1.0000000;"
         id="stop579" />
    </linearGradient>
    <linearGradient
       id="XMLID_4_"
       gradientUnits="userSpaceOnUse"
       x1="138.9619"
       y1="81.7217"
       x2="160.7008"
       y2="91.3207">
      <stop
         offset="0"
         style="stop-color:#DDDDDD"
         id="stop593" />
      <stop
         offset="1"
         style="stop-color:#BBBBBB"
         id="stop594" />
    </linearGradient>
    <linearGradient
       id="XMLID_5_"
       gradientUnits="userSpaceOnUse"
       x1="147.6846"
       y1="85.5732"
       x2="160.7313"
       y2="91.3341">
      <stop
         offset="0"
         style="stop-color:#FFFFFF"
         id="stop600" />
      <stop
         offset="1"
         style="stop-color:#000000"
         id="stop601" />
    </linearGradient>
    <linearGradient
       id="XMLID_6_"
       gradientUnits="userSpaceOnUse"
       x1="154.583"
       y1="68.7451"
       x2="138.4187"
       y2="52.5808">
      <stop
         offset="0"
         style="stop-color:#DDDDDD"
         id="stop607" />
      <stop
         offset="1"
         style="stop-color:#FFFFFF"
         id="stop608" />
    </linearGradient>
    <linearGradient
       id="XMLID_7_"
       gradientUnits="userSpaceOnUse"
       x1="80.1108"
       y1="183.7988"
       x2="150.5206"
       y2="225.1263">
      <stop
         offset="0.0000000"
         style="stop-color:#9999ff;stop-opacity:1.0000000;"
         id="stop614" />
      <stop
         offset="0.75840002"
         style="stop-color:#3333ff;stop-opacity:1.0000000;"
         id="stop615" />
      <stop
         offset="1.0000000"
         style="stop-color:#3333cc;stop-opacity:1.0000000;"
         id="stop616" />
    </linearGradient>
    <linearGradient
       y2="225.1263"
       x2="150.5206"
       y1="183.7988"
       x1="80.1108"
       gradientUnits="userSpaceOnUse"
       id="linearGradient1374"
       xlink:href="#XMLID_7_"
       inkscape:collect="always" />
    <linearGradient
       y2="52.5808"
       x2="138.4187"
       y1="68.7451"
       x1="154.583"
       gradientUnits="userSpaceOnUse"
       id="linearGradient1377"
       xlink:href="#XMLID_6_"
       inkscape:collect="always" />
    <linearGradient
       y2="91.3341"
       x2="160.7313"
       y1="85.5732"
       x1="147.6846"
       gradientUnits="userSpaceOnUse"
       id="linearGradient1380"
       xlink:href="#XMLID_5_"
       inkscape:collect="always" />
    <linearGradient
       y2="91.3207"
       x2="160.7008"
       y1="81.7217"
       x1="138.9619"
       gradientUnits="userSpaceOnUse"
       id="linearGradient1383"
       xlink:href="#XMLID_4_"
       inkscape:collect="always" />
    <linearGradient
       y2="142.3682"
       x2="103.5664"
       y1="142.3682"
       x1="8.4751"
       gradientUnits="userSpaceOnUse"
       id="linearGradient1392"
       xlink:href="#XMLID_3_"
       inkscape:collect="always" />
    <linearGradient
       y2="158.5"
       x2="171.6855"
       y1="83"
       x1="171.6855"
       gradientUnits="userSpaceOnUse"
       id="linearGradient1395"
       xlink:href="#XMLID_2_"
       inkscape:collect="always" />
    <linearGradient
       y2="137.0723"
       x2="176.0432"
       y1="105.0996"
       x1="169.873"
       gradientUnits="userSpaceOnUse"
       id="linearGradient1398"
       xlink:href="#XMLID_1_"
       inkscape:collect="always" />
    <linearGradient
       y2="137.0723"
       x2="176.0432"
       y1="105.0996"
       x1="169.873"
       gradientUnits="userSpaceOnUse"
       id="linearGradient1439"
       xlink:href="#XMLID_1_"
       inkscape:collect="always" />
    <linearGradient
       y2="158.5"
       x2="171.6855"
       y1="83"
       x1="171.6855"
       gradientUnits="userSpaceOnUse"
       id="linearGradient1441"
       xlink:href="#XMLID_2_"
       inkscape:collect="always" />
    <linearGradient
       y2="142.3682"
       x2="103.5664"
       y1="142.3682"
       x1="8.4751"
       gradientUnits="userSpaceOnUse"
       id="linearGradient1443"
       xlink:href="#XMLID_3_"
       inkscape:collect="always" />
    <linearGradient
       y2="91.3207"
       x2="160.7008"
       y1="81.7217"
       x1="138.9619"
       gradientUnits="userSpaceOnUse"
       id="linearGradient1445"
       xlink:href="#XMLID_4_"
       inkscape:collect="always" />
    <linearGradient
       y2="91.3341"
       x2="160.7313"
       y1="85.5732"
       x1="147.6846"
       gradientUnits="userSpaceOnUse"
       id="linearGradient1447"
       xlink:href="#XMLID_5_"
       inkscape:collect="always" />
    <linearGradient
       y2="52.5808"
       x2="138.4187"
       y1="68.7451"
       x1="154.583"
       gradientUnits="userSpaceOnUse"
       id="linearGradient1449"
       xlink:href="#XMLID_6_"
       inkscape:collect="always" />
    <linearGradient
       y2="225.1263"
       x2="150.5206"
       y1="183.7988"
       x1="80.1108"
       gradientUnits="userSpaceOnUse"
       id="linearGradient1451"
       xlink:href="#XMLID_7_"
       inkscape:collect="always" />
  </defs>
  <sodipodi:namedview
     id="base"
     inkscape:zoom="26.562594"
     inkscape:cx="39.912245"
     inkscape:cy="36.643225"
     inkscape:window-width="1175"
     inkscape:window-height="949"
     inkscape:window-x="0"
     inkscape:window-y="0"
     inkscape:current-layer="svg548" />
  <g
     inkscape:export-ydpi="24.000000"
     inkscape:export-xdpi="24.000000"
     inkscape:export-filename="/mnt/vdrsrc/xxv/devlop/XXV-Skins/stone/images/cut.png"
     transform="matrix(0.762932,0.962040,-0.687686,1.146609,114.6567,-145.4265)"
     id="g1411">
    <path
       style="opacity:0.20000000;stroke:none"
       d="M 250.64900,87.094000 L 159.52300,108.18400 L 194.24600,21.081000 L 191.23500,21.081000 C 154.47200,21.081000 127.05100,80.203000 113.02800,118.94400 L 110.72700,119.47700 C 111.21700,124.86200 109.35200,129.87900 106.83300,134.87700 C 108.37100,128.82800 109.44300,122.69100 109.88300,116.53000 L 106.33200,117.35200 L 105.39600,118.13600 C 97.109000,125.07600 88.968000,131.55700 84.268000,134.99800 C 81.253000,126.93300 76.218000,113.67300 64.809000,108.53700 C 58.805000,105.83500 52.048000,105.89300 44.723000,108.71000 C 12.316000,121.17700 8.6820000,144.86600 8.3400000,151.82900 L 8.3330000,151.97900 L 8.3350000,152.22900 L 8.3480000,152.48300 L 8.3890000,153.17100 C 9.0810000,162.18900 17.063000,174.79600 29.226000,180.37800 C 37.286000,184.07800 50.127000,186.11300 65.534000,174.79900 L 94.960000,153.18600 C 94.960000,153.18600 94.875000,153.21300 94.865000,153.21600 C 95.214000,152.98400 95.625000,152.68700 96.261000,152.21200 C 98.224000,150.72800 100.24200,149.20100 101.35400,149.38900 C 101.46100,149.40700 101.71400,149.47100 102.10700,149.69200 C 102.47400,148.73600 102.81900,147.77300 103.16600,146.81000 C 103.39100,146.91400 103.61600,147.03200 103.84600,147.17000 C 103.14700,149.60800 102.72400,151.18400 102.59100,151.68800 L 102.27600,152.87900 L 103.18500,153.71300 C 105.29000,155.64300 106.79200,157.40200 107.70200,158.98300 C 107.71300,159.05700 107.71800,159.11800 107.71900,159.15500 C 107.73600,160.28300 105.92300,162.04700 104.16900,163.75400 L 103.01900,164.88300 L 77.182000,190.72000 C 63.602000,204.29900 63.073000,216.97700 65.019000,225.22200 C 67.947000,237.62100 77.756000,246.02800 83.786000,248.03700 C 107.73000,256.01800 127.99300,246.93100 142.38600,221.75500 C 145.05700,217.08000 146.41100,212.42100 146.41100,207.90700 C 146.41100,205.88600 146.13800,203.87500 145.59700,201.92800 C 142.24400,189.86500 129.88600,182.87800 122.37000,178.67900 C 126.50400,174.55200 134.24200,167.40000 142.24900,160.35400 L 142.52000,160.11500 C 141.33600,159.98000 140.15500,159.86600 138.97300,159.73900 L 143.23000,149.06000 C 182.26500,141.51200 244.08500,124.24000 253.08500,89.596000 L 253.93200,86.335000 L 250.64900,87.094000 z M 59.852000,142.38000 C 59.935000,143.72200 59.882000,145.03000 59.693000,146.26600 C 59.003000,150.77000 56.703000,154.75200 53.385000,157.19000 C 50.863000,159.04200 47.928000,159.82500 45.123000,159.39400 C 38.790000,158.42400 34.430000,151.80900 34.983000,144.00800 L 35.006000,143.66700 L 34.985000,143.32900 C 34.902000,141.99100 34.956000,140.68200 35.145000,139.44000 C 36.411000,131.16900 42.948000,125.28100 49.716000,126.31600 C 56.049000,127.28400 60.407000,133.89800 59.853000,141.70100 L 59.829000,142.04200 L 59.852000,142.38000 z M 122.71000,213.68900 C 122.71000,220.53700 115.89900,226.10700 107.52700,226.10700 C 99.155000,226.10700 92.344000,220.53700 92.344000,213.68900 C 92.344000,206.84300 99.155000,201.27300 107.52700,201.27300 C 115.89900,201.27300 122.71000,206.84400 122.71000,213.68900 z "
       id="path552" />
    <path
       style="fill:#333333;stroke:none"
       d="M 39.282000,103.71500 C 6.3110000,116.39900 2.6080000,140.60300 2.2590000,147.71900 L 2.2520000,147.87300 L 2.2530000,148.17600 L 2.2670000,148.47200 L 2.3080000,149.16800 C 3.0220000,158.46500 11.228000,171.48900 23.727000,177.22600 C 32.030000,181.03800 45.245000,183.14700 61.043000,171.54300 L 90.470000,149.93000 L 90.337000,149.98800 L 91.778000,148.95200 C 93.145000,147.91900 95.420000,146.19800 96.107000,146.31400 L 97.498000,146.92400 L 97.960000,145.98800 C 102.40500,134.42400 105.04300,123.17000 105.80100,112.53900 L 105.89700,111.18800 L 100.79300,112.37000 L 99.674000,113.30800 C 92.209000,119.56100 84.550000,125.68900 79.657000,129.34000 C 76.574000,121.15400 71.440000,108.65100 60.139000,103.56400 C 53.882000,100.74800 46.865000,100.79900 39.282000,103.71500 z M 40.194000,154.34400 C 34.379000,153.45300 30.383000,147.29500 30.900000,140.01800 L 30.928000,139.61000 L 30.903000,139.20800 C 30.825000,137.93800 30.876000,136.70000 31.054000,135.53000 C 32.237000,127.80400 38.262000,122.29200 44.485000,123.24400 C 50.298000,124.13300 54.293000,130.29100 53.777000,137.57000 L 53.748000,137.97800 L 53.774000,138.38200 C 53.853000,139.65300 53.802000,140.89000 53.625000,142.05300 C 52.975000,146.29700 50.820000,150.04000 47.714000,152.32300 C 45.404000,154.01600 42.734000,154.73300 40.194000,154.34400 z "
       id="path553" />
    <path
       d="M 101.25000,113.29100 L 100.31400,114.07500 C 92.027000,121.01600 83.886000,127.49600 79.186000,130.93700 C 76.172000,122.87200 71.136000,109.61200 59.727000,104.47600 C 53.724000,101.77400 46.966000,101.83200 39.641000,104.64900 C 7.2340000,117.11600 3.6000000,140.80500 3.2580000,147.76800 L 3.2510000,147.91800 L 3.2530000,148.16800 L 3.2660000,148.42200 L 3.3070000,149.11000 C 4.0000000,158.12800 11.981000,170.73500 24.145000,176.31700 C 32.205000,180.01700 45.046000,182.05200 60.453000,170.73800 L 89.879000,149.12500 C 89.879000,149.12500 89.794000,149.15200 89.784000,149.15500 C 90.133000,148.92400 90.544000,148.62700 91.180000,148.15100 C 93.143000,146.66700 95.161000,145.14000 96.274000,145.32800 C 96.380000,145.34600 96.634000,145.41100 97.027000,145.63100 C 101.14100,134.92700 104.00100,123.73600 104.80400,112.46900 L 101.25000,113.29100 z M 54.771000,138.31800 C 54.854000,139.66100 54.800000,140.96900 54.612000,142.20400 C 53.922000,146.70800 51.623000,150.69000 48.304000,153.12800 C 45.782000,154.98000 42.847000,155.76300 40.042000,155.33200 C 33.708000,154.36200 29.349000,147.74800 29.902000,139.94700 L 29.925000,139.60600 L 29.904000,139.26800 C 29.821000,137.92900 29.875000,136.62000 30.064000,135.37800 C 31.330000,127.10700 37.867000,121.21900 44.635000,122.25400 C 50.968000,123.22200 55.326000,129.83600 54.773000,137.63800 L 54.749000,137.97900 L 54.771000,138.31800 z "
       id="path554"
       style="fill:#000033;stroke:none" />
    <path
       style="fill:#333333;stroke:none"
       d="M 100.99200,153.64100 C 101.60700,154.62900 101.63700,155.10600 101.63700,155.11200 C 101.63700,155.11300 101.63700,155.11300 101.63700,155.11300 C 101.63700,155.81400 99.529000,157.86600 98.395000,158.96900 L 97.235000,160.10800 L 71.392000,185.95000 C 61.043000,196.29900 58.103000,206.17000 58.103000,214.04300 C 58.103000,216.74800 58.450000,219.21700 58.963000,221.38900 C 61.980000,234.16300 72.137000,242.84200 78.387000,244.92400 C 102.84100,253.07400 123.51100,243.83100 138.17100,218.18900 C 140.93000,213.36300 142.32800,208.53700 142.32800,203.84500 C 142.32800,201.73300 142.04200,199.63100 141.47800,197.59900 C 138.15900,185.65800 126.56900,178.68600 118.93800,174.39800 C 123.33500,170.08100 130.55800,163.43900 137.82500,157.04400 L 139.79500,155.31500 L 137.55000,155.06100 C 125.48400,153.69300 113.82000,152.72900 101.89100,152.11500 L 99.980000,152.01700 L 100.99200,153.64100 z M 88.263000,209.62800 C 88.263000,203.33300 94.625000,198.21200 102.44600,198.21200 C 110.26700,198.21200 116.63000,203.33300 116.63000,209.62800 C 116.63000,215.92400 110.26700,221.04600 102.44600,221.04600 C 94.625000,221.04600 88.263000,215.92400 88.263000,209.62800 z "
       id="path555" />
    <path
       d="M 137.43800,156.05300 C 125.63900,154.71500 113.91000,153.73400 101.84000,153.11300 C 102.55600,154.26400 102.63300,154.90800 102.63600,155.09300 C 102.65300,156.22100 100.83900,157.98500 99.085000,159.69200 L 97.935000,160.82200 L 72.099000,186.65800 C 58.519000,200.23700 57.990000,212.91500 59.936000,221.16000 C 62.864000,233.55900 72.673000,241.96700 78.703000,243.97500 C 102.64700,251.95600 122.91000,242.86900 137.30300,217.69300 C 139.97500,213.01800 141.32800,208.35900 141.32800,203.84500 C 141.32800,201.82400 141.05500,199.81300 140.51500,197.86600 C 137.16100,185.80300 124.80400,178.81700 117.28800,174.61800 C 121.42200,170.49000 129.16000,163.33800 137.16600,156.29200 L 137.43800,156.05300 z M 117.62900,209.62800 C 117.62900,216.47600 110.81800,222.04600 102.44500,222.04600 C 94.073000,222.04600 87.262000,216.47600 87.262000,209.62800 C 87.262000,202.78200 94.073000,197.21200 102.44500,197.21200 C 110.81800,197.21200 117.62900,202.78200 117.62900,209.62800 z "
       id="path556"
       style="fill:#000033;stroke:none" />
    <path
       style="fill:#333333;stroke:none"
       d="M 248.62400,81.299000 L 245.34200,82.059000 L 104.57000,114.63800 L 104.64900,115.50700 C 105.28500,122.48200 101.77100,128.86300 98.050000,135.62000 L 93.981000,143.29300 L 95.740000,143.28300 L 96.616000,143.29600 C 97.956000,143.52200 100.23500,144.80500 103.47000,149.63800 L 104.49300,151.16500 L 106.32200,150.96900 C 111.60100,150.40600 235.77500,136.58300 248.97000,85.787000 L 250.23200,80.928000 L 248.62400,81.299000 z "
       id="path557" />
    <path
       style="fill:#444444;stroke:none"
       d="M 245.56700,83.033000 L 105.64500,115.41600 C 106.50700,124.87800 100.10200,133.20500 95.645000,142.28800 C 96.023000,142.25200 96.400000,142.24600 96.781000,142.30900 C 99.015000,142.68500 101.54600,144.96300 104.30200,149.08000 L 104.98900,150.10500 L 106.21600,149.97300 C 111.46700,149.41200 234.98700,135.64000 248.00400,85.534000 L 248.85100,82.273000 L 245.56700,83.033000 z "
       id="path558" />
    <path
       d="M 105.64600,115.41600 L 102.65500,116.10800 L 102.28000,116.42100 C 92.492000,124.61900 81.459000,133.37800 77.748000,135.66000 C 77.358000,134.77500 76.865000,133.46900 76.404000,132.23300 C 73.566000,124.63700 68.815000,111.92300 58.470000,107.26600 C 53.239000,104.91200 47.274000,104.99200 40.740000,107.50500 C 10.060000,119.30900 6.6350000,141.42200 6.3160000,147.91800 L 6.3110000,148.01900 L 6.3240000,148.27300 L 6.3630000,148.93000 C 6.9710000,156.83600 14.430000,168.49100 25.422000,173.53400 C 32.735000,176.89100 44.435000,178.70200 58.641000,168.26900 L 88.067000,146.65600 C 88.068000,146.65600 89.345000,145.70000 89.345000,145.70000 C 91.616000,143.98200 93.626000,142.48000 95.647000,142.28700 C 100.10200,133.20400 106.50700,124.87700 105.64600,115.41600 z M 57.826000,138.12600 C 57.923000,139.69100 57.859000,141.21900 57.638000,142.66600 C 56.825000,147.96900 54.084000,152.68200 50.116000,155.59500 C 46.935000,157.93100 43.192000,158.91200 39.578000,158.35900 L 39.578000,158.35900 C 31.655000,157.14500 26.182000,149.13700 26.849000,139.73100 L 26.858000,139.59500 L 26.850000,139.46100 C 26.753000,137.89800 26.817000,136.37000 27.039000,134.91800 C 28.560000,124.97700 36.663000,117.93900 45.099000,119.22900 C 53.023000,120.44000 58.495000,128.44900 57.828000,137.85600 L 57.819000,137.99100 L 57.826000,138.12600 z "
       id="path559"
       style="fill:#0000cc;stroke:none" />
    <path
       d="M 102.92300,118.54300 C 99.090000,121.73700 79.763000,137.75400 77.177000,138.19500 C 74.303000,138.68700 69.227000,98.735000 41.473000,109.41000 C 16.498000,119.01700 8.9450000,135.98100 8.3530000,148.01700 C 8.3660000,148.27000 8.3770000,148.52700 8.3960000,148.77400 C 9.3410000,161.06600 29.923000,186.82700 57.430000,166.62500 C 86.857000,145.01100 79.500000,150.41300 86.857000,145.01100 C 90.070000,142.65200 93.112000,139.90100 96.670000,140.24100 C 99.885000,132.96700 104.23000,125.89100 102.92300,118.54300 z M 59.655000,142.97600 C 57.959000,154.04800 48.833000,161.84200 39.269000,160.37500 C 30.258000,158.99500 24.082000,149.89600 24.812000,139.58600 C 24.712000,137.96500 24.762000,136.30200 25.020000,134.61000 C 26.715000,123.53700 35.844000,115.74800 45.407000,117.21200 C 54.417000,118.58900 60.594000,127.69100 59.863000,138.00100 C 59.963000,139.62100 59.914000,141.28500 59.655000,142.97600 z "
       id="path560"
       style="fill:#ccccff;stroke:none" />
    <path
       style="fill:#eeeeee;stroke:none"
       d="M 103.59100,117.98500 C 103.59100,117.98500 103.34800,118.18900 102.92300,118.54300 C 104.23000,125.89100 99.885000,132.96700 96.671000,140.24100 C 99.380000,140.50000 102.38800,142.55100 105.99900,147.94500 C 105.99900,147.94500 233.21800,134.33800 246.02800,85.020000 L 103.59100,117.98500 z "
       id="path561" />
    <path
       style="fill:url(#linearGradient1439);stroke:none"
       d="M 103.59100,121.04700 C 103.59100,121.04700 103.57200,121.06300 103.56700,121.06800 C 102.25900,127.68400 100.32400,134.18100 98.413000,140.65200 C 100.66500,141.50400 103.14300,143.68000 105.99800,147.94600 C 105.99800,147.94600 227.46600,134.94500 244.95700,88.330000 L 103.59100,121.04700 z "
       id="path568" />
    <path
       style="opacity:0.20000000;fill:url(#linearGradient1441);stroke:none"
       d="M 103.59100,121.04700 C 103.59100,121.04700 103.57200,121.06300 103.56700,121.06800 C 102.25900,127.68400 100.32400,134.18100 98.413000,140.65200 C 100.66500,141.50400 103.14300,143.68000 105.99800,147.94600 C 105.99800,147.94600 227.46600,134.94500 244.95700,88.330000 L 103.59100,121.04700 z "
       id="path575" />
    <path
       style="fill:url(#linearGradient1443);stroke:none"
       d="M 77.177000,141.25600 C 74.303000,141.74800 69.227000,101.79600 41.473000,112.47200 C 17.573000,121.66600 9.6320000,137.59300 8.4740000,149.49400 C 10.133000,162.03600 30.449000,186.44000 57.430000,166.62500 C 86.857000,145.01100 79.500000,150.41300 86.857000,145.01100 C 90.582000,142.27600 94.077000,139.00900 98.412000,140.65200 C 100.32300,134.18100 102.25800,127.68400 103.56600,121.06800 C 103.04900,121.50000 80.017000,140.77100 77.177000,141.25600 z M 59.871000,138.20700 C 59.897000,138.70800 59.910000,139.21300 59.903000,139.72300 C 59.901000,140.08400 59.890000,140.44800 59.871000,140.81300 C 59.866000,140.89700 59.870000,140.97900 59.864000,141.06200 C 59.964000,142.68300 59.915000,144.34700 59.656000,146.03700 C 57.960000,157.11000 48.834000,164.90300 39.270000,163.43700 C 30.259000,162.05700 24.083000,152.95700 24.813000,142.64800 C 24.809000,142.57700 24.809000,142.50500 24.805000,142.43500 C 24.779000,141.93400 24.766000,141.43200 24.773000,140.92400 C 24.776000,140.56500 24.786000,140.20400 24.805000,139.84200 C 24.810000,139.75700 24.806000,139.67200 24.812000,139.58600 C 24.712000,137.96500 24.762000,136.30200 25.020000,134.61000 C 26.715000,123.53700 35.844000,115.74800 45.407000,117.21200 C 54.417000,118.58900 60.594000,127.69100 59.863000,138.00100 C 59.867000,138.06800 59.867000,138.13800 59.871000,138.20700 z "
       id="path585" />
    <path
       style="opacity:0.20000000;stroke:none"
       d="M 160.28200,102.77100 L 113.64200,113.56500 C 108.11700,128.34200 104.38900,140.74400 102.65900,146.82600 C 103.19800,147.50900 103.74400,148.24600 104.30200,149.08000 L 104.98900,150.10500 L 106.21600,149.97300 C 108.01000,149.78200 123.62100,148.04500 143.90900,143.84500 L 160.28200,102.77100 z "
       id="path586" />
    <path
       style="fill:#333333;stroke:none"
       d="M 191.20500,12.958000 L 188.19500,12.958000 C 133.92600,12.958000 100.00000,138.94500 98.583000,144.30800 L 98.113000,146.08500 L 99.468000,147.32700 C 102.05600,149.69900 103.70600,151.79200 104.37200,153.54600 L 104.64000,154.25000 L 105.39100,154.18700 C 115.07800,153.37400 124.78800,154.99100 133.01000,156.68000 L 133.49900,156.78100 L 136.35000,154.26400 L 192.68100,12.958000 L 191.20500,12.958000 L 191.20500,12.958000 z "
       id="path587" />
    <path
       style="fill:#333333;stroke:none"
       d="M 133.21100,155.70100 C 133.85700,155.12900 134.50100,154.55800 135.14400,153.99400 L 135.51000,153.67200 L 191.20500,13.959000 L 188.19500,13.959000 C 134.68200,13.959000 100.95900,139.23200 99.549000,144.56500 L 99.234000,145.75700 L 100.14400,146.59100 C 102.85900,149.08000 104.58500,151.29000 105.30700,153.19200 C 114.60800,152.41000 123.90900,153.79000 133.21100,155.70100 z "
       id="path588" />
    <path
       d="M 133.21100,155.70100 C 123.90900,153.79000 114.60800,152.41000 105.30700,153.19100 C 105.55600,153.84700 105.68900,154.46600 105.69800,155.04700 C 105.73400,157.49400 103.64200,159.52900 101.21900,161.88600 L 100.08000,163.00400 L 74.263000,188.82100 C 61.681000,201.40200 61.148000,212.96700 62.916000,220.45400 C 65.544000,231.58500 74.468000,239.33600 79.671000,241.06900 C 102.38200,248.63900 120.87700,240.26200 134.64500,216.17200 C 137.05800,211.95000 138.26800,207.82200 138.26800,203.84400 C 138.26800,202.09400 138.03400,200.37200 137.56500,198.68400 C 134.52700,187.75300 122.67800,181.13300 115.59900,177.17800 C 114.43900,176.53100 113.20900,175.83900 112.39400,175.31800 C 114.91600,172.34900 124.14500,163.74200 133.21100,155.70100 z M 120.69000,209.62800 C 120.69000,218.16400 112.50600,225.10700 102.44500,225.10700 C 92.385000,225.10700 84.201000,218.16400 84.201000,209.62800 C 84.201000,201.09400 92.386000,194.15000 102.44500,194.15000 C 112.50600,194.15000 120.69000,201.09400 120.69000,209.62800 z "
       id="path589"
       style="fill:#0000cc;stroke:none" />
    <path
       d="M 131.35100,154.63000 C 123.39900,154.30000 115.44700,153.83400 107.49600,153.34200 C 108.73200,158.07100 104.87400,161.09900 101.52400,164.44800 C 95.070000,170.90200 101.52400,164.44800 75.708000,190.26400 C 51.575000,214.39600 71.570000,236.21900 80.318000,239.13400 C 99.681000,245.58800 118.12100,240.97800 132.87500,215.15900 C 147.62800,189.34300 108.90200,178.27800 109.82500,175.51300 C 110.55900,173.30500 125.39900,159.93000 131.35100,154.63000 z M 122.73100,209.62800 C 122.73100,219.30600 113.64800,227.14900 102.44500,227.14900 C 91.242000,227.14900 82.160000,219.30600 82.160000,209.62800 C 82.160000,199.95200 91.243000,192.10900 102.44500,192.10900 C 113.64800,192.10900 122.73100,199.95200 122.73100,209.62800 z "
       id="path590"
       style="fill:#ccccff;stroke:none" />
    <path
       style="fill:#ffffff;stroke:none"
       d="M 133.79500,152.46200 L 188.19500,16.000000 C 135.63900,16.000000 101.52300,145.08600 101.52300,145.08600 C 105.12400,148.38700 106.89900,151.06100 107.49500,153.34200 C 115.44700,153.83400 123.39900,154.30000 131.35000,154.63000 C 132.85100,153.29300 133.79500,152.46200 133.79500,152.46200 z "
       id="path591" />
    <path
       style="fill:url(#linearGradient1445);stroke:none"
       d="M 133.79500,152.46200 L 188.16300,16.079000 C 136.78600,19.401000 103.56400,145.08600 103.56400,145.08600 C 108.76200,149.85100 110.17100,153.31500 109.69100,156.16500 C 115.77900,156.26000 121.94600,156.58900 127.97600,157.65100 C 131.32500,154.63600 133.79500,152.46200 133.79500,152.46200 z "
       id="path598" />
    <path
       style="opacity:0.20000000;fill:url(#linearGradient1447);stroke:none"
       d="M 184.93300,16.470000 L 129.86000,151.19600 C 129.86000,151.19600 127.38800,153.34600 124.03200,156.33400 C 119.33000,155.41600 114.53600,154.96100 109.76100,154.71900 C 109.79100,155.21900 109.77000,155.70100 109.69100,156.16500 C 115.77900,156.26000 121.94600,156.58900 127.97600,157.65100 C 131.32500,154.63500 133.79500,152.46200 133.79500,152.46200 L 188.16300,16.079000 C 187.07700,16.149000 186.00300,16.293000 184.93300,16.470000 z "
       id="path605" />
    <path
       style="fill:url(#linearGradient1449);stroke:none"
       d="M 153.78300,55.100000 C 160.37700,47.336000 168.15400,41.876000 176.66300,37.991000 L 184.08100,18.630000 C 152.87000,20.730000 128.76200,72.608000 115.54000,109.31600 C 134.66100,97.997000 140.63500,72.747000 153.78300,55.100000 z "
       id="path612" />
    <path
       style="fill:url(#linearGradient1451);stroke:none"
       d="M 127.97600,157.65100 C 121.94600,156.58800 115.77900,156.25900 109.69100,156.16500 C 109.14900,159.38300 106.19700,161.81500 103.56400,164.44800 C 97.110000,170.90200 103.56400,164.44800 77.747000,190.26400 C 53.615000,214.39600 73.609000,236.21900 82.357000,239.13400 C 87.082000,240.70800 91.751000,241.61800 96.325000,241.72900 C 109.73000,241.33400 122.25600,233.73900 132.87300,215.16000 C 147.62600,189.34400 108.90000,178.27900 109.82300,175.51400 C 110.44200,173.65200 121.08300,163.85900 127.97600,157.65100 z M 124.77200,209.62800 C 124.77200,219.30600 115.68900,227.14900 104.48600,227.14900 C 104.14200,227.14900 103.80600,227.11900 103.46500,227.10400 C 103.12500,227.11900 102.78900,227.14900 102.44400,227.14900 C 91.241000,227.14900 82.159000,219.30600 82.159000,209.62800 C 82.159000,199.95200 91.242000,192.10900 102.44400,192.10900 C 102.78800,192.10900 103.12400,192.13900 103.46500,192.15400 C 103.80500,192.13900 104.14100,192.10900 104.48600,192.10900 C 115.68900,192.10900 124.77200,199.95200 124.77200,209.62800 z "
       id="path622" />
    <path
       style="fill:#333333;stroke:none"
       d="M 116.18000,129.77400 C 116.18000,134.66600 120.14400,138.63000 125.03600,138.63000 C 129.92900,138.63000 133.89300,134.66500 133.89300,129.77400 C 133.89300,124.88300 129.92900,120.91800 125.03600,120.91800 C 120.14400,120.91800 116.18000,124.88300 116.18000,129.77400 z "
       id="path623" />
    <path
       d="M 106.05900,157.65400 L 133.10100,157.65400 L 133.10100,154.08200 L 106.05900,154.08200 L 106.05900,157.65400 z "
       id="path624"
       style="fill:#0000cc;stroke:none" />
    <path
       d="M 95.912000,142.53800 L 98.037000,143.09400 L 105.39800,114.95800 L 103.27300,114.40200 L 95.912000,142.53800 z "
       id="path625"
       style="fill:#0000cc;stroke:none" />
  </g>
</svg>
