<?xml version="1.0" encoding="UTF-8" standalone="no"?>
<!-- Created with Sodipodi ("http://www.sodipodi.com/") -->
<svg
   xmlns:xml="http://www.w3.org/XML/1998/namespace"
   xmlns:svg="http://www.w3.org/2000/svg"
   xmlns="http://www.w3.org/2000/svg"
   xmlns:sodipodi="http://inkscape.sourceforge.net/DTD/sodipodi-0.dtd"
   xmlns:inkscape="http://www.inkscape.org/namespaces/inkscape"
   width="48pt"
   height="48pt"
   viewBox="0 0 48 48"
   style="overflow:visible;enable-background:new 0 0 48 48"
   xml:space="preserve"
   id="svg786"
   sodipodi:version="0.32"
   sodipodi:docname="edit.svg"
   sodipodi:docbase="/mnt/vdrsrc/xxv/devlop/XXV-Skins/stone/images/artwork"
   inkscape:version="0.41">
  <defs
     id="defs962">
    <linearGradient
       id="XMLID_29_"
       gradientUnits="userSpaceOnUse"
       x1="-157.7324"
       y1="294.5586"
       x2="-134.7892"
       y2="271.6154"
       gradientTransform="matrix(1 0 0 -1 178.5 315.5)">
      <stop
   offset="0"
   style="stop-color:#FFFFFF"
   id="stop864" />

      <stop
   offset="1"
   style="stop-color:#B1B1C5"
   id="stop865" />

    </linearGradient>
    <linearGradient
       id="XMLID_36_"
       gradientUnits="userSpaceOnUse"
       x1="-201.0083"
       y1="268.4639"
       x2="-178.6366"
       y2="281.3212"
       gradientTransform="matrix(1 0 0 -1 178.5 315.5)">
      <stop
   offset="0"
   style="stop-color:#336666"
   id="stop921" />

      <stop
   offset="1"
   style="stop-color:#003333"
   id="stop922" />

    </linearGradient>
    <linearGradient
       id="XMLID_37_"
       gradientUnits="userSpaceOnUse"
       x1="-368.0845"
       y1="21.1597"
       x2="-364.2296"
       y2="17.3045"
       gradientTransform="matrix(0.999 0.0435 0.0435 -0.999 401.3 52.7485)">
      <stop
   offset="0"
   style="stop-color:#F8F1DC"
   id="stop928" />

      <stop
   offset="1"
   style="stop-color:#D6A84A"
   id="stop929" />

    </linearGradient>
    <linearGradient
       id="XMLID_38_"
       gradientUnits="userSpaceOnUse"
       x1="-360.8008"
       y1="30.2891"
       x2="-358.7519"
       y2="32.7308"
       gradientTransform="matrix(0.999 0.0435 0.0435 -0.999 401.3 52.7485)">
      <stop
   offset="0"
   style="stop-color:#009F81"
   id="stop935" />

      <stop
   offset="1"
   style="stop-color:#336666"
   id="stop936" />

    </linearGradient>
    <linearGradient
       id="XMLID_39_"
       gradientUnits="userSpaceOnUse"
       x1="-372.7759"
       y1="37.6865"
       x2="-364.164"
       y2="18.5667"
       gradientTransform="matrix(0.999 0.0435 0.0435 -0.999 401.3 52.7485)">
      <stop
   offset="0"
   style="stop-color:#2CA900"
   id="stop942" />

      <stop
   offset="0.7753"
   style="stop-color:#33CC33"
   id="stop943" />

      <stop
   offset="1"
   style="stop-color:#006A00"
   id="stop944" />

    </linearGradient>
    <linearGradient
       id="XMLID_40_"
       gradientUnits="userSpaceOnUse"
       x1="-219.2041"
       y1="144.4365"
       x2="-222.7178"
       y2="144.4365"
       gradientTransform="matrix(-0.1991 0.98 -0.98 -0.1991 123.7572 270.0863)">
      <stop
   offset="0"
   style="stop-color:#336666"
   id="stop952" />

      <stop
   offset="1"
   style="stop-color:#003333"
   id="stop953" />

    </linearGradient>
  </defs>
  <sodipodi:namedview
     id="base"
     inkscape:zoom="6.3028633"
     inkscape:cx="19.387197"
     inkscape:cy="20.937091"
     inkscape:window-width="733"
     inkscape:window-height="541"
     inkscape:window-x="0"
     inkscape:window-y="0"
     showguides="true"
     inkscape:guide-bbox="true"
     inkscape:current-layer="svg786" />
  <g
     id="g1602"
     transform="matrix(1.192201,0.000000,0.000000,1.186630,-9.225627,-1.586581)">
    <path
   style="opacity:0.20000000;"
   d="M 10.105000,19.878000 C 9.1630000,20.239000 8.7710000,21.163000 9.2300000,21.937000 L 19.038000,38.440000 C 19.497000,39.214000 20.638000,39.548000 21.580000,39.187000 L 39.266000,32.396000 C 40.208000,32.035000 40.600000,31.111000 40.141000,30.337000 L 30.333000,13.834000 C 29.873000,13.061000 28.732000,12.726000 27.791000,13.087000 L 10.105000,19.878000 z "
   id="path859" />

    <path
   style="fill:#003366;"
   d="M 10.743000,19.240000 C 9.8010000,19.602000 9.4090000,20.525000 9.8680000,21.299000 L 19.675000,37.802000 C 20.134000,38.575000 21.275000,38.910000 22.217000,38.549000 L 39.904000,31.758000 C 40.845000,31.397000 41.238000,30.473000 40.778000,29.699000 L 30.971000,13.196000 C 30.511000,12.423000 29.370000,12.088000 28.429000,12.449000 L 10.743000,19.240000 z "
   id="path861" />

    <path
   style="fill:#ffffff;"
   d="M 20.178000,37.609000 C 20.503000,38.156000 21.306000,38.392000 21.972000,38.136000 L 39.659000,31.345000 C 40.325000,31.090000 40.601000,30.439000 40.275000,29.892000 L 30.469000,13.390000 C 30.144000,12.843000 29.341000,12.607000 28.674000,12.863000 L 10.988000,19.654000 C 10.322000,19.910000 10.046000,20.560000 10.371000,21.107000 L 20.178000,37.609000 z "
   id="path862" />

    <path
   style="fill:url(#XMLID_29_);"
   d="M 29.054000,13.625000 L 29.054000,13.625000 L 11.368000,20.416000 C 11.271000,20.454000 11.202000,20.515000 11.178000,20.584000 C 11.162000,20.629000 11.168000,20.675000 11.196000,20.722000 L 21.004000,37.225000 C 21.089000,37.370000 21.360000,37.463000 21.594000,37.374000 L 39.280000,30.583000 C 39.377000,30.546000 39.446000,30.484000 39.470000,30.415000 C 39.486000,30.369000 39.480000,30.324000 39.452000,30.277000 L 29.644000,13.774000 C 29.559000,13.630000 29.287000,13.536000 29.054000,13.625000 z "
   id="path869" />

    <path
   style="opacity:0.40000001;fill:#ffffff;"
   d="M 27.762000,22.334000 C 28.776000,20.178000 30.601000,18.608000 32.810000,17.329000 L 30.469000,13.390000 C 30.144000,12.843000 29.341000,12.607000 28.674000,12.863000 L 10.988000,19.654000 C 10.322000,19.910000 10.046000,20.560000 10.371000,21.107000 L 17.396000,32.929000 C 22.562000,31.324000 25.583000,26.668000 27.762000,22.334000 z "
   id="path870" />

    <path
   style="opacity:0.20000000;"
   d="M 36.784502,22.501000 C 33.204526,22.745000 30.040771,22.961000 29.987268,22.965000 C 29.987268,22.965000 29.985694,22.983000 29.985694,22.983000 C 29.775617,23.012000 28.467155,23.866000 24.131057,26.697000 L 24.056310,26.746000 C 24.056310,26.746000 24.039787,26.757000 24.039000,26.758000 C 24.303367,26.936000 24.551999,27.103000 24.570095,27.115000 C 24.607862,27.133000 30.257930,29.749000 30.257930,29.749000 C 30.257930,29.749000 30.265011,29.755000 30.271306,29.761000 C 30.379098,29.754000 35.312384,29.430000 39.829448,29.134000 L 36.784502,22.501000 z "
   id="path917" />

    <path
   style="opacity:0.20000000;"
   d="M 41.438000,3.2810000 C 41.437000,3.2820000 27.132000,19.209000 27.028000,19.325000 C 27.029000,19.325000 27.040000,19.339000 27.040000,19.339000 C 26.873000,19.547000 26.300000,21.328000 24.404000,27.226000 L 24.371000,27.328000 C 24.371000,27.328000 24.365000,27.350000 24.364000,27.352000 C 24.727000,27.241000 25.069000,27.135000 25.094000,27.127000 C 25.140000,27.106000 32.069000,23.877000 32.069000,23.877000 C 32.069000,23.877000 32.080000,23.875000 32.090000,23.873000 C 32.259000,23.687000 46.540000,7.8500000 46.540000,7.8500000 C 46.635000,7.7350000 46.679000,7.5880000 46.679000,7.4180000 C 46.679000,6.6770000 45.850000,5.4980000 44.843000,4.5940000 C 43.599000,3.4730000 41.985000,2.6750000 41.438000,3.2810000 z "
   id="path918" />

    <path
   style="opacity:0.20000000;"
   d="M 41.251000,3.0940000 C 41.250000,3.0950000 26.945000,19.022000 26.841000,19.138000 C 26.842000,19.138000 26.853000,19.152000 26.853000,19.152000 C 26.686000,19.360000 26.113000,21.141000 24.217000,27.039000 L 24.184000,27.141000 C 24.184000,27.141000 24.178000,27.163000 24.177000,27.165000 C 24.540000,27.054000 24.882000,26.948000 24.907000,26.940000 C 24.953000,26.919000 31.882000,23.690000 31.882000,23.690000 C 31.882000,23.690000 31.893000,23.688000 31.903000,23.686000 C 32.072000,23.498000 46.353000,7.6620000 46.353000,7.6620000 C 46.448000,7.5470000 46.492000,7.4000000 46.492000,7.2300000 C 46.492000,6.4890000 45.663000,5.3100000 44.656000,4.4060000 C 43.411000,3.2850000 41.798000,2.4880000 41.251000,3.0940000 z "
   id="path919" />

    <path
   style="fill:url(#XMLID_36_);"
   d="M 41.063000,2.9060000 C 41.062000,2.9070000 26.757000,18.834000 26.653000,18.950000 C 26.654000,18.950000 26.665000,18.964000 26.665000,18.964000 C 26.498000,19.172000 25.925000,20.953000 24.029000,26.851000 L 23.997000,26.953000 C 23.997000,26.953000 23.991000,26.975000 23.990000,26.977000 C 24.354000,26.866000 24.695000,26.760000 24.720000,26.752000 C 24.766000,26.731000 31.695000,23.502000 31.695000,23.502000 C 31.695000,23.502000 31.706000,23.500000 31.716000,23.498000 C 31.885000,23.310000 46.166000,7.4740000 46.166000,7.4740000 C 46.261000,7.3590000 46.305000,7.2120000 46.305000,7.0420000 C 46.305000,6.3010000 45.476000,5.1220000 44.469000,4.2180000 C 43.224000,3.0980000 41.610000,2.3000000 41.063000,2.9060000 z "
   id="path926" />

    <path
   style="fill:url(#XMLID_37_);"
   d="M 27.223000,19.181000 L 24.697000,26.201000 L 31.393000,22.905000 L 31.363000,22.878000 C 31.409000,22.863000 31.454000,22.845000 31.492000,22.819000 L 31.514000,22.841000 L 45.380000,7.4520000 L 45.358000,7.4330000 C 45.772000,6.9750000 45.168000,5.7590000 44.012000,4.7170000 C 42.856000,3.6760000 41.585000,3.2040000 41.172000,3.6610000 L 27.308000,19.048000 L 27.223000,19.181000 z "
   id="path933" />

    <path
   style="fill:url(#XMLID_38_);"
   d="M 44.012000,4.7170000 C 42.856000,3.6760000 41.585000,3.2040000 41.172000,3.6610000 L 38.049000,7.1280000 L 37.837000,12.005000 L 41.147000,12.149000 L 45.380000,7.4510000 L 45.358000,7.4320000 C 45.771000,6.9750000 45.167000,5.7590000 44.012000,4.7170000 z "
   id="path940" />

    <path
   style="fill:url(#XMLID_39_);"
   d="M 45.431000,7.3310000 C 45.113000,7.6580000 44.327000,7.4740000 43.472000,6.9270000 C 43.188000,6.7460000 42.895000,6.5230000 42.610000,6.2670000 C 42.339000,6.0230000 42.103000,5.7690000 41.897000,5.5190000 C 41.239000,4.7110000 40.960000,3.9280000 41.257000,3.5700000 L 41.253000,3.5660000 L 27.293000,19.055000 C 27.175000,19.472000 27.400000,20.252000 27.983000,20.962000 C 28.182000,21.205000 28.414000,21.451000 28.677000,21.687000 C 28.969000,21.951000 29.270000,22.180000 29.562000,22.364000 C 30.435000,22.917000 31.275000,23.136000 31.590000,22.787000 C 31.662000,22.706000 31.977000,22.357000 31.985000,22.344000 L 45.475000,7.3700000 L 45.431000,7.3310000 z "
   id="path950" />

    <path
   style="opacity:0.80000001;fill:url(#XMLID_40_);"
   d="M 25.807000,22.914000 L 24.618000,26.258000 L 27.477000,24.853000 C 27.477000,24.853000 27.055000,24.829000 26.446000,24.224000 C 25.638000,23.426000 25.807000,22.914000 25.807000,22.914000 z "
   id="path957" />

    <path
   style="opacity:0.49999997;fill:#ffffff;"
   d="M 27.931000,20.891000 L 41.953000,5.5850000 C 41.935000,5.5630000 41.914000,5.5410000 41.896000,5.5190000 C 41.633000,5.1960000 41.433000,4.8760000 41.302000,4.5870000 L 27.352000,19.816000 C 27.453000,20.152000 27.646000,20.528000 27.931000,20.891000 z "
   id="path958" />

    <path
   style="opacity:0.49999997;fill:#ffffff;"
   d="M 41.896000,5.5190000 C 41.780000,5.3750000 41.677000,5.2340000 41.584000,5.0950000 L 27.588000,20.373000 C 27.694000,20.569000 27.824000,20.768000 27.984000,20.961000 C 28.121000,21.126000 28.272000,21.294000 28.438000,21.458000 L 42.472000,6.1380000 C 42.258000,5.9340000 42.065000,5.7260000 41.896000,5.5190000 z "
   id="path959" />

    </g>
</svg>
