<?xml version="1.0" encoding="UTF-8" standalone="no"?>
<!-- Created with Sodipodi ("http://www.sodipodi.com/") -->
<svg
   xmlns:xapMM="http://ns.adobe.com/xap/1.0/mm/"
   xmlns:xapGImg="http://ns.adobe.com/xap/1.0/g/img/"
   xmlns:xap="http://ns.adobe.com/xap/1.0/"
   xmlns:pdf="http://ns.adobe.com/pdf/1.3/"
   xmlns:x="adobe:ns:meta/"
   xmlns:xml="http://www.w3.org/XML/1998/namespace"
   xmlns:dc="http://purl.org/dc/elements/1.1/"
   xmlns:rdf="http://www.w3.org/1999/02/22-rdf-syntax-ns#"
   xmlns:svg="http://www.w3.org/2000/svg"
   xmlns="http://www.w3.org/2000/svg"
   xmlns:sodipodi="http://inkscape.sourceforge.net/DTD/sodipodi-0.dtd"
   xmlns:inkscape="http://www.inkscape.org/namespaces/inkscape"
   inkscape:export-ydpi="24.000000"
   inkscape:export-xdpi="24.000000"
   inkscape:export-filename="/mnt/vdrsrc/xxv/devlop/XXV-Skins/stone/images/file.png"
   inkscape:version="0.41"
   sodipodi:docbase="/mnt/vdrsrc/xxv/devlop/XXV-Skins/stone/images/artwork"
   sodipodi:docname="file.svg"
   sodipodi:version="0.32"
   id="svg589"
   xml:space="preserve"
   style="overflow:visible;enable-background:new 0 0 48 48"
   viewBox="0 0 48 48"
   height="48pt"
   width="48pt">
  <defs
   id="defs677">
  <linearGradient
     gradientTransform="matrix(0.1991 0.98 -0.98 0.1991 91.6944 573.5653)"
     y2="-164.2214"
     x2="-360.2456"
     y1="-94.4194"
     x1="-481.7007"
     gradientUnits="userSpaceOnUse"
     id="XMLID_11_">
      <stop
   id="stop736"
   style="stop-color:#990000"
   offset="0" />

      <stop
   id="stop737"
   style="stop-color:#7C0000"
   offset="1" />

      
      
      
    </linearGradient>
  <linearGradient
     gradientTransform="matrix(-0.999 0.0435 0.0435 0.999 -1277.0056 -496.5172)"
     y2="706.3217"
     x2="-1355.0455"
     y1="685.3809"
     x1="-1375.9844"
     gradientUnits="userSpaceOnUse"
     id="XMLID_12_">
      <stop
   id="stop743"
   style="stop-color:#F8F1DC"
   offset="0" />

      <stop
   id="stop744"
   style="stop-color:#D6A84A"
   offset="1" />

      
      
      
    </linearGradient>
  <linearGradient
     y2="160.1823"
     x2="137.6021"
     y1="-0.7954"
     x1="65.0947"
     gradientUnits="userSpaceOnUse"
     id="XMLID_13_">
      <stop
   id="stop750"
   style="stop-color:#FFA700"
   offset="0" />

      <stop
   id="stop751"
   style="stop-color:#FFD700"
   offset="0.7753" />

      <stop
   id="stop752"
   style="stop-color:#FF794B"
   offset="1" />

      
      
      
      
      
    </linearGradient>
  <linearGradient
     gradientTransform="matrix(-0.999 0.0435 0.0435 0.999 -1277.0056 -496.5172)"
     y2="622.5333"
     x2="-1325.3219"
     y1="635.7949"
     x1="-1336.4497"
     gradientUnits="userSpaceOnUse"
     id="XMLID_14_">
      <stop
   id="stop763"
   style="stop-color:#FFC957"
   offset="0" />

      <stop
   id="stop764"
   style="stop-color:#FF6D00"
   offset="1" />

      
      
      
    </linearGradient>
  <linearGradient
     gradientTransform="matrix(-0.999 0.0435 0.0435 0.999 -1277.0056 -496.5172)"
     y2="699.4763"
     x2="-1354.6851"
     y1="595.6309"
     x1="-1401.459"
     gradientUnits="userSpaceOnUse"
     id="XMLID_15_">
      <stop
   id="stop770"
   style="stop-color:#FFA700"
   offset="0" />

      <stop
   id="stop771"
   style="stop-color:#FFD700"
   offset="0.7753" />

      <stop
   id="stop772"
   style="stop-color:#FF9200"
   offset="1" />

      
      
      
      
      
    </linearGradient>
  <linearGradient
     y2="115.5361"
     x2="144.5898"
     y1="115.5361"
     x1="67.8452"
     gradientUnits="userSpaceOnUse"
     id="XMLID_16_">
      <stop
   id="stop780"
   style="stop-color:#7D7D99"
   offset="0" />

      <stop
   id="stop781"
   style="stop-color:#B1B1C5"
   offset="0.1798" />

      <stop
   id="stop782"
   style="stop-color:#BCBCC8"
   offset="0.3727" />

      <stop
   id="stop783"
   style="stop-color:#C8C8CB"
   offset="0.6825" />

      <stop
   id="stop784"
   style="stop-color:#CCCCCC"
   offset="1" />

      
      
      
      
      
    </linearGradient>
</defs>

  <sodipodi:namedview
   inkscape:current-layer="svg589"
   inkscape:window-y="42"
   inkscape:window-x="10"
   inkscape:window-height="541"
   inkscape:window-width="640"
   inkscape:cy="30.000000"
   inkscape:cx="30.000000"
   inkscape:zoom="5.9833333"
   id="base" />

  <metadata
   id="metadata590">
    <xpacket
   id="xpacket106">
begin='﻿' id='W5M0MpCehiHzreSzNTczkc9d'</xpacket>

    <x:xmpmeta
   id="xmpmeta108"
   x:xmptk="XMP toolkit 3.0-29, framework 1.6">
      <rdf:RDF
   id="RDF110">
        <rdf:Description
   id="Description112"
   rdf:about="uuid:9dfcc10e-f4e2-4cbf-91b0-8deea2f1a998">
          <pdf:Producer
   id="Producer114">
Adobe PDF library 5.00</pdf:Producer>

        </rdf:Description>

        <rdf:Description
   id="Description116"
   rdf:about="uuid:9dfcc10e-f4e2-4cbf-91b0-8deea2f1a998" />

        <rdf:Description
   id="Description118"
   rdf:about="uuid:9dfcc10e-f4e2-4cbf-91b0-8deea2f1a998" />

        <rdf:Description
   id="Description120"
   rdf:about="uuid:9dfcc10e-f4e2-4cbf-91b0-8deea2f1a998">
          <xap:CreateDate
   id="CreateDate122">
2004-02-04T02:08:51+02:00</xap:CreateDate>

          <xap:ModifyDate
   id="ModifyDate124">
2004-03-29T09:20:16Z</xap:ModifyDate>

          <xap:CreatorTool
   id="CreatorTool126">
Adobe Illustrator 10.0</xap:CreatorTool>

          <xap:MetadataDate
   id="MetadataDate128">
2004-02-29T14:54:28+01:00</xap:MetadataDate>

          <xap:Thumbnails
   id="Thumbnails130">
            <rdf:Alt
   id="Alt132">
              <rdf:li
   id="li134"
   rdf:parseType="Resource">
                <xapGImg:format
   id="format136">
JPEG</xapGImg:format>

                <xapGImg:width
   id="width138">
256</xapGImg:width>

                <xapGImg:height
   id="height140">
256</xapGImg:height>

                <xapGImg:image
   id="image142">
/9j/4AAQSkZJRgABAgEASABIAAD/7QAsUGhvdG9zaG9wIDMuMAA4QklNA+0AAAAAABAASAAAAAEA
AQBIAAAAAQAB/+4ADkFkb2JlAGTAAAAAAf/bAIQABgQEBAUEBgUFBgkGBQYJCwgGBggLDAoKCwoK
DBAMDAwMDAwQDA4PEA8ODBMTFBQTExwbGxscHx8fHx8fHx8fHwEHBwcNDA0YEBAYGhURFRofHx8f
Hx8fHx8fHx8fHx8fHx8fHx8fHx8fHx8fHx8fHx8fHx8fHx8fHx8fHx8fHx8f/8AAEQgBAAEAAwER
AAIRAQMRAf/EAaIAAAAHAQEBAQEAAAAAAAAAAAQFAwIGAQAHCAkKCwEAAgIDAQEBAQEAAAAAAAAA
AQACAwQFBgcICQoLEAACAQMDAgQCBgcDBAIGAnMBAgMRBAAFIRIxQVEGE2EicYEUMpGhBxWxQiPB
UtHhMxZi8CRygvElQzRTkqKyY3PCNUQnk6OzNhdUZHTD0uIIJoMJChgZhJRFRqS0VtNVKBry4/PE
1OT0ZXWFlaW1xdXl9WZ2hpamtsbW5vY3R1dnd4eXp7fH1+f3OEhYaHiImKi4yNjo+Ck5SVlpeYmZ
qbnJ2en5KjpKWmp6ipqqusra6voRAAICAQIDBQUEBQYECAMDbQEAAhEDBCESMUEFURNhIgZxgZEy
obHwFMHR4SNCFVJicvEzJDRDghaSUyWiY7LCB3PSNeJEgxdUkwgJChgZJjZFGidkdFU38qOzwygp
0+PzhJSktMTU5PRldYWVpbXF1eX1RlZmdoaWprbG1ub2R1dnd4eXp7fH1+f3OEhYaHiImKi4yNjo
+DlJWWl5iZmpucnZ6fkqOkpaanqKmqq6ytrq+v/aAAwDAQACEQMRAD8A9U4q7FXYq7FXYq7FXYq7
FXYq7FXYq7FXYq7FXYq7FXYq7FXYq7FXYq7FXYq7FXYq7FXYq7FXYq7FXYq7FXYq7FXYq7FXYq7F
XYq7FXYq7FXYq7FXYq7FXYq7FXYq7FXYq7FXYq7FXYq7FXYq7FXYq7FXYq7FXYq7FXYq7FXYq7FX
Yq7FXYq7FXYq7FXYq7FXYq7FXYq7FXYq7FXYq7FXYq7FXYq7FXYq7FXYq7FXYq7FXYq7FXYq7FXY
q7FXzd+b/wDzlWum3k+h+QxFc3EJMdzrkoEkKuNiLZPsyU/nb4fAEb50vZ/YXEBPLsP5v62meXue
A3v5mfmprl080vmLVriXdjHBcTIi17rFCVRfoXOghocEBQhH5NJmepUf8Tfmj/1dtb/6SLv/AJqy
f5fD/Nj8gjxPN3+JvzR/6u2t/wDSRd/81Y/l8P8ANj8gviebv8Tfmj/1dtb/AOki7/5qx/L4f5sf
kF8Tzd/ib80f+rtrf/SRd/8ANWP5fD/Nj8gviebv8Tfmj/1dtb/6SLv/AJqx/L4f5sfkF8Tzd/ib
80f+rtrf/SRd/wDNWP5fD/Nj8gviebv8Tfmj/wBXbW/+ki7/AOasfy+H+bH5BfE83f4m/NH/AKu2
t/8ASRd/81Y/l8P82PyC+J5u/wATfmj/ANXbW/8ApIu/+asfy+H+bH5BfE83f4m/NH/q7a3/ANJF
3/zVj+Xw/wA2PyC+J5u/xN+aP/V21v8A6SLv/mrH8vh/mx+QXxPN3+JvzR/6u2t/9JF3/wA1Y/l8
P82PyC+J5u/xN+aP/V21v/pIu/8AmrH8vh/mx+QXxPN3+JvzR/6u2t/9JF3/AM1Y/l8P82PyC+J5
u/xN+aP/AFdtb/6SLv8A5qx/L4f5sfkF8Tzd/ib80f8Aq7a3/wBJF3/zVj+Xw/zY/IL4nm7/ABN+
aP8A1dtb/wCki7/5qx/L4f5sfkF8Tzd/ib80f+rtrf8A0kXf/NWP5fD/ADY/IL4nm7/E35o/9XbW
/wDpIu/+asfy+H+bH5BfE82j5t/M+Aes2ta3EI/i9U3N2vGnfly2x/LYT/DH5BePzZ15C/5yh/Mb
y7cxRaxcHzDpQIEsF2f9IC9zHc058v8AX5D9ea/VdiYcg9I4JeXL5NkchD688jeefLvnby/DrmhT
+rayEpLE4CywygAtFKtTxYV+RG4qDnH6nTTwT4JjdyIytkGY6XYq7FXYq7FXYq7FXjX/ADlH+YV1
5W8hppunymHU/MMj2qSqaMltGoNwynxPNE/2WbrsPSDLl4pfTDf49GvJKg+VPy+8lP5ivecqM9rG
4jWFaqZpTvw57cVUULGvcfMdtYFk7Ac3Ua3VHGAI/XLk+jNK/LfSLS0SK4JYqDSGCkUCV3PBVAPX
vtXwzWT7TlfoAA+11f5Xi3mTIo608meV/wBL2lnLbSSLcc/92sB8Kk70IOU5+0s4xSmCPT5NuDRY
pZBEjmyu2/KnydcFgliF4ip5TT/wY5ov5f1f877B+p2/8kaf+b9pVv8AlT3lL/lkT/kdcf1w/wAv
az+d9kf1I/kjTfzftLR/J/yl/wAsif8AI65/rj/L2s/nfZH9S/yRpv5v2lafyg8p/wDLKn/I65/r
h/l3Wfzvsj+pf5J03837S0fyh8p/8sqf8jrn+uP8u6z+d9kf1L/JOm/m/aWj+UXlP/llj/5HXP8A
XH+XdZ/O+yP6l/knTfzftLX/ACqPyn/yzR/8jrn+uH+XNb/O+yP6l/knTd32lr/lUflX/lmj/wCR
1z/XB/Lmt/nfZH9S/wAk6bu+0u/5VD5W/wCWaP8A5HXP9cf5d1n877I/qX+SdN/N+0u/5VB5Y/5Z
ov8Akdc/1x/l3Wfzvsj+pf5J03837S7/AJU/5a/5Zov+R1z/AFx/l3Wfzvsj+pf5J03837S7/lT3
lv8A5Zov+R1z/XB/L2s/nfZH9S/yRpv5v2l3/KnfLv8AyzRf8jrn+uP8vaz+d9kf1L/JGm/m/aXf
8qc8v/8ALNF/yOuf64/y9rP532R/Uv8AJGm/m/aXf8qb0H/lmh/5HXP9cf5f1n877I/qX+SNN/N+
0u/5U1oP/LND/wAjrn+uD+X9Z/O+wfqT/JGn/m/aVk/5P6BDBJM1rEVjUswE1xWg8KnH/RBq/wCd
9g/Uv8kaf+b9pYp5i8oeXLOGBoLQo0j8SRJIe3+Uxza9ldq6jNKQnLkO4Ov1/Z2HGAYj7SkreXdK
IoEZD/Mrmo+Vaj8M3I1eR1fgRee/mD+W8NxE91ZIPrhq0UygL6rbt6ctNubfssevy6XwmJjbYjo5
ml1csUhGRuB+xJP+cfvzGvfJvny1T1T+iNXdLTUbcn4SWNIpPZkduvgTmq7Z0gy4Sf4obj9L0WOV
F93xSJLGsiGqOAyn2O+cK5K7FXYq7FXYq7FXYq+R/wDnM65lbzjoFsT+6i05pEG/2pJ2VvbpGM6/
2cH7uR/pfocfNzb/ACCs7caXZzBAJPQuJS3fn9ZMXL/gNs2uvkRirvl+h0GffUm+kfx972EnNKyU
LXfzNpZ/4y/8QOOo/wAWn8PvbdN/fRei6SPjl/1R+vOWDvyjyMsQsIwoWkYVWEYULSMKFhGSVrFV
wOBVwOBVwOBK4HFVwOBK4HAq4HAlcDgVQ1I/7jrn/jE36siUh5X5uH+j23tL/DN52F9U/c6vtX6Q
x0nOidEgNZodNmBAP2aE9jzG4+jL9P8AWGrL9JfNGuSmDzPqEsICGK9maNRsF4ykgCnhmRKArhel
08iccT5B+iHk+4afQbcsalBx+8Bv+Ns8wdknWKuxV2KuxV2KuxV8hf8AOZn/ACneif8AbLH/AFES
52Hs7/dS/rfoDj5uaO/IUf7gbI/8ulx/1GnNlr/7v/O/Q6DN/jEv6v6nqxOahksshXzJpv8Az0/4
gcjqf8Xn8PvbdL/exei6SPjk/wBUfrzlw9AmBGTYrSMKrCMKFpGFVhGFC0jChYRklaxVcDgVcDgV
cDgSuBxVcDgSuBwKuBwJUdRP+4+5/wCMTfqyJSHlvmwf6Lb+0n8M3XYX1S9zq+1fpDwzzXoX1nzD
eT8a82U1/wBgBm1y6fikS6qGfhFJt5T076lomoJSnOSM/dTMzQYuCTj6rJxh4h5k/wCUi1T/AJjJ
/wDk62bM83fab+6j/VH3P0N8jf8AHBj+Y/5NpnlztGQYq7FXYq7FXYq7FXyF/wA5mf8AKd6J/wBs
sf8AURLnYezv91L+t+gOPm5ph+Q4/wCddsj/AMutx/1Gtmx1/wBH+d+h0Gb/ABiX9X9T1InNUl2n
b+Y9P/56f8QOQ1X+Lz+H3t+l/vYvRtJH7yT/AFR+vOWDv0xIySFhGSQtIwqsIwoWkYVWEYULSMKF
hGSVrFVwOBVwOBVwOBK4HFVwOBK4HAqjf/8AHPuf+MTfqyEkh5j5rH+iQ/65/Uc3XYf1y9zre1Pp
DDpbGzkcu8QZ26k50weeMQoXVvDDZyrEgQNQkD5jLMX1BhMbPmrzN/ykmrf8xlx/ydbMp6XTf3cf
6o+5+hnkb/jgx/Mf8m0zy52bIMVdirsVdirsVdir5C/5zM/5TvRP+2WP+oiXOw9nf7qX9b9AcfNz
TL8iR/zrFif+Xa4/6jWzYa76f879Doc/9/L3fqenE5rEL9KFfMNh85P+IHK9X/cT+H3uRpP72L0f
SR+8k/1f45yzv0xIwqtIwoWEZJC0jCqwjChaRhVYRhQtIwoWEZJWsVXA4FXA4FXA4ErgcVXA4EqV
9/vBc/8AGJv1ZCXJIea+ah/ocfsx/wCInNx2H9cvcHW9qfQGIE507z6HvN7dx8v1jLMfNhPk+Z/N
H/KTav8A8xtx/wAnWzJek0/93H+qPufoX5G/44MfzH/JtM8vdmyDFXYq7FXYq7FXYq+Qv+czP+U7
0T/tlj/qIlzsPZ3+6l/W/QHHzc0z/Isf86nYH/l3uP8AqNbM/W8v879Doc/9/L3fqelk5rkK2j76
/ZfN/wDiBynWf3Evx1cjSf3oej6UP3r/AOr/ABzl3fpliq0jCq0jChYRkkLSMKrCMKFpGFVhGFC0
jChYRklaxVcDgVcDgVcDgSuBxVTvP94rn/jE36shPkyDzjzUP9BX5n/iJzbdifXL4Ou7U+gfFhhO
dS86pXG8TD5frycebGXJ8z+av+Un1j/mNuf+TrZkh6TT/wB3H+qPufoV5G/44MfzH/JtM8vdmyDF
XYq7FXYq7FXYq+Qv+czP+U70T/tlj/qIlzsPZ3+6l/W/QHHzc01/I0f86fp5/wCKLj/qNbM7W8v8
79Dos/8AfH3fqejE5gMEVoe+u2fzf/iByjW/3Evx1cnR/wB4Ho+l/wB4/wAv45y7v0xxV2KrSMKr
SMKFhGSQtIwqsIwoWkYVWEYULSMKFhGSVrFVwOBVwOBVwOBKy6P+h3H/ABib9WQnySHnnmkf6APY
t/xE5texPrPwdf2n9A+LByc6t5xTfcEZIIL5p82f8pTrP/Mdc/8AJ5syRyek0/8Adx9w+5+hPkb/
AI4MfzH/ACbTPL3ZsgxV2KuxV2KuxV2KvkL/AJzM/wCU70T/ALZY/wCoiXOw9nf7qX9b9AcfNzTf
8jx/zpWnH/im4/6jHzO1n6f0Oi1H98fd+p6ETmE1o3y/vrdr82/4gcxtd/cycrR/3gej6b/eP8v4
5y7v0wxV2KuxVaRhVaRhQsIySFpGFVhGFC0jCqwjChaRhQsIyStYquBwKuBwKtuT/olx/wAYm/Vk
J8mUXn/mkf7jj/sv+InNp2L/AHh+Dr+0/oHxYGTnWvONDdgMUPmnzb/yletf8x9z/wAnmzIjyelw
f3cfcH6EeRv+ODH8x/ybTPMHZMgxV2KuxV2KuxV2KvkL/nMz/lO9E/7ZY/6iJc7D2d/upf1v0Bx8
3NOPyRH/ADo2mn/im4/6jHzN1fP4/odHqP70+5n5OYjUmHlzfWrb5t/xA5ia7+5k5Wi/vA9H07+8
f5fxzmHfo/FXYq7FXYqtIwqtIwoWEZJC0jCqwjChaRhVYRhQtIwoWEZJWsVXA4Fan/3luP8AjE36
shk5MosD80D/AHGt8m/4gc2XY394fg4Haf0fN56TnXvNLod5VHz/AFYJclD5p83/APKWa3/zH3X/
ACebMiPIPS4P7uPuD9CPI3/HBj+Y/wCTaZ5g7JkGKuxV2KuxV2KuxV8hf85mf8p3on/bLH/URLnY
ezv91L+t+gOPm5p1+SYp5B0w/wDFVx/1GPmZq/q+P6HR6n+9PuZ0TmM0pr5Y31iD5t/xA5h6/wDu
i5mi/vA9G0/7b/LOYd8jsVdirsVdirsVWkYVWkYULCMkhaRhVYRhQtIwqsIwoWkYULCMkrWKul/3
mn/4xt+rK8nJMebB/NA/3Fyf6r/8QObHsb+8Pw+9we0/o+bzgnOxeZVLXe4QfP8AUcjPkmPN81ec
f+Uu1z/toXX/ACebL4fSHpcH0R9wfoP5G/44MfzH/JtM8xdkyDFXYq7FXYq7FXYq+Qv+czP+U70T
/tlj/qIlzsPZ3+6l/W/QHHzc08/JUf8AIPNLP/Fdx/1GSZl6r6z7/wBDpNT/AHh9zNicocdOPKu+
rQ/M/wDEGzB7Q/ui5uh+sPRbEhXappt3zmXfI3mn8w+/FXeon8w+/FWvUj/mH3jFXepH/MPvGKu9
WP8AnH3jFXepF/Ov3jFVpeP+dfvGG1Wl4/51+8YbQtLJ/Mv3jDa0tJT+ZfvGHiCKWnj/ADL/AMEP
64eILS08f5l/4If1w8QRS0qP5l/4If1w8YWlpUfzL/wS/wBceMIorCn+Uv8AwS/1w8YXhKyai289
WXeNgPiB3I+eRnIEJiGFeZx/uKm/1H/4gc2PY/8AefL73B7S+j5vNCc7N5dWsN7uMfP/AIichl+k
so83zX5z/wCUw13/ALaF1/yffL8f0j3PS4foj7g/QbyN/wAcGP5j/k2meYuyZBirsVdirsVdirsV
fIX/ADmZ/wAp3on/AGyx/wBREudh7O/3Uv636A4+bmnv5Lj/AJBxpZ/yLj/qMkzK1X1n3/odJqv7
w+5mZOVOOmvly5jtrwTyAlIzuFpXdSO9Mw9bjM4cI6uVpJiMrLK/8T2H++5fuX/mrNL/ACdk7x+P
g7b85DuLX+JbD/fcv3L/AM1Y/wAnZO8fj4L+ch3Fr/Elj/vuX7l/5qx/k7J3j8fBfzkO4tf4jsf9
9y/cv/NWP8nZO8fj4L+ch3Fo+YrH/fcv3L/zVj/J2TvH4+C/nIdxW/4hsv5JPuX/AJqx/k7J3j8f
BfzkO4tfp+y/kk+5f+asf5Oyd4/HwX85DuLX6es/5JPuX/mrH+TsnePx8F/OQ7i1+nbP+ST7l/5q
x/k7J3j8fBfzkO4tfpy0/kk+5f64/wAnZO8fj4L+ch3Fr9N2n8kn3L/XH+TsnePx8F/OQ7i0datf
5JPuX+uP8nZO8fj4L+ch3Fb+mLX+R/uH9cf5Oyd4/HwX85DuLX6Xtv5H+4f1x/k7J3j8fBfzkO4t
fpa2/lf7h/XH+TsnePx8F/OQ7i0dVt/5X+4f1x/k7J3j8fBfzkO4tHVLf+V/uH9cf5Oyd4/HwX85
DuKW6/dxz6XcKgYFY5DvT+Q++bDs7TSx5Bdbkfe4etzicNvN5sTnWPOojTN7+If63/ETleb6Cyhz
fNnnX/lMte/7aN3/AMn3y/H9I9z02H6B7g/QXyN/xwY/mP8Ak2meYuxZBirsVdirsVdirsVfIX/O
Zn/Kd6J/2yx/1ES52Hs7/dS/rfoDj5uaf/kyP+QZ6Uf8m4/6jJMytT/eH8dHS6r6z7mXk5W4rSyy
JXgxWvWhIxMQVEiOTjdXH+/X/wCCOPAO5eM9603Vz/v1/wDgjh4I9y8Z71pu7n/fz/8ABHDwR7kc
Z71pu7r/AH8//BH+uHw49y8cu9aby6/39J/wR/rh8OPcEccu9ab27/3/ACf8E39cPhx7gjjl3rTe
3f8Av+T/AINv64fDj3BfEl3rTfXn+/5P+Db+uHw49wR4ku8rTfXv/LRJ/wAG39cPhR7gviS7ytN/
e/8ALRJ/wbf1w+FHuCPEl3ladQvv+WiX/g2/rh8KPcEeJLvK06hff8tMv/Bt/XD4Ue4L4ku8rTqN
/wD8tMv/AAbf1w+FDuCPEl3ladRv/wDlpl/4Nv64fBh3D5L4ku8rTqWof8tUv/Bt/XD4MO4fJHiy
7ytOp6h/y1Tf8jG/rh8GHcPkjxZd5aOp6j/y1Tf8jG/rh8GHcPkviy7ypvqN+6lWuZWVhRlLsQQe
xFcIwwHQfJByS7yhScta0Xo++pQj/W/4icq1H0Fnj+p82+d/+Uz1/wD7aN3/AMn3y7F9I9z02H6B
7g/QTyN/xwY/mP8Ak2meZOxZBirsVdirsVdirsVfIX/OZn/Kd6J/2yx/1ES52Hs7/dS/rfoDj5ub
IfybH/ILtJPtcf8AUZLmTqP70/jo6XVfWWVE5FxFpOFVpOFDCLz82fLtrdz2slteGSCRonKpFQlC
VNKyDbbLRjLLgKgfzh8tf8s17/wEX/VXD4ZXwytP5weWv+Wa9/4CL/qrjwFHhlo/m95b/wCWa8/4
CL/qrh4Cvhlo/m75b/5Zrz/gIv8Aqrh4V8Mrf+Vt+XD/AMe15/wEX/VXCIFHhF3/ACtjy6f+Pa8/
4CL/AKqZMYijwy1/ytXy8f8Aj3u/+Ai/6qZYNPJHhl3/ACtPy+f+Pe7/AOAj/wCqmTGll5I8Mtf8
rQ0A/wDHvd/8BH/1UywaKfkjwy7/AJWboR/497r/AICP/qpkx2fPvCOAtf8AKytDP+6Lr/gI/wDq
pkx2bk7x+PgjgLY/MXRT0guf+Bj/AOa8P8nZO8fj4LwFseftIPSG4/4FP+a8f5Pn3j8fBHAUTY+b
dOvbqO2iimWSQkKXVQNhXejHwyGTSSiLNIMSE4JzGYLCcKFpOFCN0PfVYB/rf8QOU6n+7LZi+oPm
7zx/ymvmD/tpXn/J98uxfQPcHpsX0D3B+gfkb/jgx/Mf8m0zzJ2LIMVdirsVdirsVdir5C/5zM/5
TvRP+2WP+oiXOw9nf7qX9b9AcfNzZF+To/5BVpB9rj/qMlzI1H98fx0dNq/qLJycXDWk4ULScKEq
/IbT7OTVvMty0S/Wm1BoRPQcxHVmKqT0BPXNL25M3EdKd52bEUS9s/RNv/O/3j+maC3Zu/RNv/O/
3j+mNq79E2/87/eP6Y2rv0Tb/wA7/eP6Y2rv0Tb/AM7/AHj+mNq79E2/87/eP6Y2rv0Tb/zv94/p
jau/RNv/ADv94/pjau/RNv8Azv8AeP6Y2rv0Tb/zv94/pjau/RNv/O/3j+mNq80/PXTbMeUJmaMP
LbyQvBKwBZC8gRqEU6qc6L2YyyjqwAdpA38nA7RiDiJ7nzykeekEvOpz5cSmsWx9z/xE5jak+gsZ
cmeE5qWhaThQtJwqj/L2+sW4/wBf/iDZRq/7s/jq2YfqD5v89f8AKb+Yf+2nef8AUQ+W4foHuD02
L6R7n6BeRv8Ajgx/Mf8AJtM8zdiyDFXYq7FXYq7FXYq+Qv8AnMz/AJTvRP8Atlj/AKiJc7D2d/up
f1v0Bx83Nkn5Pj/kEujn/mI/6jJcvz/35/HR02r+osjJyThLScKFhOSQgvyCamo+YR46o3/G2aHt
z6o+533Zv0l7pmhdk7FXYq7FXYq7FXYq7FXYq7FXYq8w/PPfytdr7wf8nRm/9m/8bj7pfc4PaP8A
cn4PntI89IJebTXQUpqlufc/8ROY+c+gsZcmZk5rWhaThVaThQmPlrfW7Yf6/wDybbMfWf3R/HVt
wfWHzh58/wCU58xf9tO8/wCoh8twfRH3B6fH9I9z9AfI3/HBj+Y/5NpnmbsGQYq7FXYq7FXYq7FX
yF/zmZ/yneif9ssf9REudh7O/wB1L+t+gOPm5sm/KEf8gh0Y+9x/1GTZdm/vz+OgdPrOZT8nLHAW
E5JC0nCqX/kO9NT8wf8AbUb/AI2zQ9ufVH3O+7N+kvdPUzQ07Jg/5n+a7ny3o9zq0CGY20cREHMx
hvUnEfUA9OVemZmh03jZRC6u/utpz5eCBl3PIv8AoY3V/wDq1j/pKf8A5ozoR7NxP8f2ftdf/KR/
m/ay/wDLf81dQ826lcW0tsbQWypJyWZpOXJuNKELmu7U7JGliJCXFZ7nJ0ur8UkVVPZvUzR05rvU
xpXepjSu9TGld6mNK71MaV3qY0rzP8625eXrlf8AjB/ydGb32c/xuPul9zg9o/3J+DwdI89FJebT
PRkpqEJ9z+o5RmPpLCXJlJOYLStJwoWE4UJp5V31+1H/ABk/5NtmNrf7o/D727T/AFh84efv+U68
x/8AbUvf+oh8swf3cfcHp8f0j3P0B8jf8cGP5j/k2meaOwZBirsVdirsVdirsVfIX/OZn/Kd6J/2
yx/1ES52Hs7/AHUv636A4+bmyf8AKMf8gc0U/wCVcf8AUZNl2b/GD+OgdPrOZTsnLnXrScKrScKE
s/I1qanr3/bTb/jbND22PVH3O/7N+kvb/UzROyeYfny9fJmoj/iu2/6i0zbdiD/CofH/AHJcTW/3
R+H3vmQDPQ4wefep/kEeOuah/wAYov8Ak5nOe1Eaxw/rH7nZdmfUfc+l/UziXcu9TFXepirvUxV3
qYq71MVd6mKvOPzhblolwPaH/k5m79nv8aj7j9zgdo/3J+DxdI89BJebTDTEpeRH3P6jlOQ7MZck
/JzFaFhOFC0nCqbeUd/MVoP+Mn/Jpsxdf/cy+H3hu031h84/mB/ynnmT/tqXv/UQ+Waf+7j/AFR9
z0+P6R7n6AeRv+ODH8x/ybTPNHYMgxV2KuxV2KuxV2KvkL/nMz/lO9E/7ZY/6iJc7D2d/upf1v0B
x83NlP5TD/kC+iH/AC7n/qMmy3L/AIzL8dA6jWcym5OZDrlpOFC0nChKfyUbjqmue+pN/wAbZpO3
h6of1Xf9m/SXtXqZz9Oyeafnm9fKOoD/AIrt/wDqKXNz2CP8Lh/nf7kuJrv7o/D73zaFz0mMHnre
nfkWeOt33/GKP/k5nMe1kaxQ/rH7nZ9l/Ufc+j/UzhKdy71MaV3qY0rvUxpXepjSu9TGld6mNK8/
/NduWlzL7Rf8nM3XYH+NR+P3OD2l/cn4PJEjzvSXmkbYpS4Q/wCfTKpnZjLkmpOUtC0nCq0nJITj
ybv5lsx/xk/5NPmH2h/cy+H3hv0394Hzl+YP/KfeZf8Atq3v/US+Waf+7j/VH3PTw+kPv/yN/wAc
GP5j/k2meaOwZBirsVdirsVdirsVfIX/ADmZ/wAp3on/AGyx/wBREudh7O/3Uv636A4+bmyv8qB/
yBPRD/xZc/8AUZNlmT/GpfjoHUa1MycynWrScKFhOFUn/JxuOqa1/wBtJv8AjbNR7QD1Q/qu+7M+
kvZfUznKdm83/Ox+XlW/H/Fdv/1Erm69nh/hkP8AO/3JcTXf3J+H3vncLnp8YvOPSvyUHDWL0+Mc
f/E85P2u/uof1j9ztOy/qPufQ3qZwVO6d6mNK71MaV3qY0rvUxpXepjSu9TGlYJ+ZjcrGUe0X/E8
3HYX+Mx+P3OB2l/cn4PNEjzuSXmkVbpSRTlZLGXJFk5FpWk5JC0nChOvJG/miyH/ABl/5MvmF2l/
cS+H3hyNL/eD8dHzn+Yf/Kf+Zv8AtrX3/US+T0391H+qPueoh9Iff3kb/jgx/Mf8m0zzVz2QYq7F
XYq7FXYq7FXyF/zmZ/yneif9ssf9REudh7O/3Uv636A4+bmyz8qv/JHaGf8Aiy5/6jJ8nk/xuXu/
QHUa1MCczHWLCcKrScKEk/KN+Gqaz/20W/42zV+0Y3x/1Xfdl/SXr31gZzVO0Yv520E+YLSSwbms
EyIHkjKhgUk9Tbl8hmXodXLTZRliATG+fmKas2IZImJ6sFH5J2Q/3ddffF/TOh/0W5/5kPt/W4P8
lw7ynvlX8v18vXbz25mkMoVX9QpQBWrtxAzV9pdsZNXERkAOHutyNPpI4iSDzei/WBmnpy3fWBjS
u+sDGld9YGNK76wMaV31gY0rvrAxpWGfmA4kt5B/kx/8Tzbdi/4wPj9zgdpf3J+DAkjztCXmldEp
vkbYy5Licm0LScKFhOFU98ib+a7H/nr/AMmXzB7T/wAXl8PvDkaT+8H46PnT8xf/ACYPmf8A7a19
/wBRL5PTf3Uf6o+56iHIPv3yN/xwY/mP+TaZ5q57IMVdirsVdirsVdir5C/5zMB/x1oh7fosf9RE
udh7O/3Uv636A4+bmyz8qv8AyRuh07S3Ffb/AEyfJz/xuXu/QHUa3kjSczXWLScKFpOFDH/ywfhq
OsH/AJf2/W2a72lG+P8AqO+7L+kvT/rXvnMU7R31r3xpXfWvfGld9a98aV31r3xpXfWvfGld9a98
aV31r3xpXfWvfGld9a98aV31r3xpWM+bpPUiYeyf8Szadj/4wPj9zg9pf3J+DFUjzsCXmVVkpGTg
id2MuSHJy9oWE4VWk4UJ95CqfNljQbD1a/8AIl8wO1P8Xl8PvDkaP+8H46PnX8xf/Jg+Z/8AtrX3
/US+T0v91H+qPuephyD798jf8cGP5j/k2meaueyDFXYq7FXYq7FXYq+b/wDnMvyrcXGj6F5ngQtH
YSSWV6QK8VuOLxMfBQ8bLXxYZ0vs7nAlLGeu4+DTmHVif/OOXm+xvdGvfImoTiO5LvdaSXbZlIDS
RINt0ZfUp1ILeGbPtDGYTGUfF12pxcQZ/fafeWUhjuIytDQPT4W+Ry3FljMWC6acDHmhCcta1hOF
Uo/KW39fzBf2/X1dQYU/4LNf7UHfH/Ud92V9Je4/4U/yPwzkuN2tO/wp/kfhjxrTv8Kf5H4Y8a07
/Cn+R+GPGtO/wp/kfhjxrTv8Kf5H4Y8a07/Cn+R+GPGtO/wp/kfhjxrTv8Kf5H4Y8a07/Cn+R+GP
GtO/wp/kfhjxrTz78wrH6lf/AFelKxI1Pmx/pm27GN5x8fucDtP+5PwYmkedcS8wuuEpbufb+OMD
6mMuSWE5ltK0nChyJJK4jjUu7bKqgkk+wGJIAsqBfJldi1p5F0G982+Yf3BjjMdlZsQsskjbqig/
tvxoB2FSds0Wu1H5iQxY9+8u20OlINl82eV7HUPNvny1WWs1zqF4bm8cDqC5lmb2rvT3zK1mUYMB
PdGh9wd/AWafoD5TtzBo6L2LEj5ABf8AjXPPHLTjFXYq7FXYq7FXYql/mDQdL8waLeaLqsIuNPv4
mhuIj3Vu4PZlO6nsd8sxZZY5CUeYQRb4V/NL8oPNv5a656pEs2kiX1NL1uDko+FqpzZf7qVdtvHd
Sc7vQ9o49TGuUusfxzDjTgQmOjf85K/mRp1klrMbLUymy3F5C5loBQAtDJCG+ZFfE4z7KxSN7j3O
OcUSj/8Aoaf8wf8Aq36T/wAibn/soyH8kYu+X2fqR4Ad/wBDT/mD/wBW/Sf+RNz/ANlGP8kYu+X2
fqXwAoN/zkl5puryK6v9OtRJACIHsXmtXUk9SzvcfgBlObsSEuUiPfv+puxejkjP+hnPMn++bz/u
JS/9U8xv9Dw/n/7H9rd4rv8AoZzzJ/vm8/7iUv8A1Tx/0PD+f/sf2r4rv+hnPMn++bz/ALiUv/VP
H/Q8P5/+x/aviu/6Gc8yf75vP+4lL/1Tx/0PD+f/ALH9q+K7/oZzzJ/vm8/7iUv/AFTx/wBDw/n/
AOx/aviu/wChnPMn++bz/uJS/wDVPH/Q8P5/+x/aviu/6Gc8yf75vP8AuJS/9U8f9Dw/n/7H9q+K
7/oZzzJ/vm8/7iUv/VPH/Q8P5/8Asf2r4rv+hnPMn++bz/uJS/8AVPH/AEPD+f8A7H9q+K7/AKGc
8yf75vP+4lL/ANU8f9Dw/n/7H9q+K7/oZzzJ/vm8/wC4lL/1Tx/0PD+f/sf2r4qEm/5yR8yi8jvr
awikvEBQyahNLdjgRSg4mBh1/mPyy7D2FCJ3kT7hX62vJLjFK3/Q0/5g/wDVv0n/AJE3P/ZRmT/J
GLvl9n6nH8AO/wChp/zB/wCrfpP/ACJuf+yjH+SMXfL7P1L4Ad/0NP8AmD/1b9J/5E3P/ZRj/JGL
vl9n6l8AO/6Gn/MH/q36T/yJuf8Asox/kjF3y+z9S+AGj/zlP+YJH/HP0ke/o3P/AGUY/wAkYu+X
2fqXwQwPXvM/nfz/AKxF9emm1O7qRa2cS0jiDHf040AVR0qx32+I5lxhi08L2iO9tjCtg+ifyJ/J
ubQF+u36q+tXajmRusEXXiD+vxNPAE8f2r2l+YlUfoH2+f6nKhCn0XBCkEKQxiiRgKv0ZqGxfirs
VdirsVdirsVdiqhfWFlf2slpewpcW0o4yQyKGVh7g4QSNwryzXP+cZ/yy1G4a4i0xIGY1McTyQrX
5RMo/wCFzYY+1tTAUJn40fvYHGEp/wChVPy+/wCWAf8ASXdf1yf8tar+f9kf1L4cXf8AQqn5ff8A
LAP+ku6/rj/LWq/n/ZH9S+HF3/Qqn5ff8sA/6S7r+uP8tar+f9kf1L4cXf8AQqn5ff8ALAP+ku6/
rj/LWq/n/ZH9S+HF3/Qqn5ff8sA/6S7r+uP8tar+f9kf1L4cXf8AQqn5ff8ALAP+ku6/rj/LWq/n
/ZH9S+HF3/Qqn5ff8sA/6S7r+uP8tar+f9kf1L4cXf8AQqn5ff8ALAP+ku6/rj/LWq/n/ZH9S+HF
3/Qqn5ff8sA/6S7r+uP8tar+f9kf1L4cXf8AQqn5ff8ALAP+ku6/rj/LWq/n/ZH9S+HF3/Qqn5ff
8sA/6S7r+uP8tar+f9kf1L4cXf8AQqn5ff8ALAP+ku6/rj/LWq/n/ZH9S+HF3/Qqn5ff8sA/6S7r
+uP8tar+f9kf1L4cXf8AQqn5ff8ALAP+ku6/rj/LWq/n/ZH9S+HF3/Qqn5ff8sA/6S7r+uP8tar+
f9kf1L4cXf8AQqn5ff8ALAP+ku6/rj/LWq/n/ZH9S+HF3/Qqn5ff8sA/6S7r+uP8tar+f9kf1L4c
Xf8AQqn5ff8ALAP+ku6/rj/LWq/n/ZH9S+HF3/Qqn5ff8sA/6S7r+uP8tar+f9kf1L4cW1/5xW/L
9WDCwWo33urkj7icT2zqv5/2R/UvhxZl5Z/KLy9oKcLG1t7RduRgT42p4sQN/c5g5tRkym5yMmQA
DNrOytrSL04E4j9o9ST7nKUq+KuxV2KuxV2KuxV2KuxV2KuxV2KuxV2KuxV2KuxV2KuxV2KuxV2K
uxV2KuxV2KuxV2KuxV2KuxV2KuxV2KuxV2KuxV2KuxV2KuxV2KuxV2KuxV2KuxV2KuxV2KuxV2Ku
xV2KuxV2KuxV2KuxV2KuxV2KuxV2KuxV2KuxV2KuxV2KuxV2KuxV2KuxV2KuxV2KuxV2KuxV2Kux
V2KuxV2KuxV2KuxV2KuxV2KuxV2KuxV2KuxV2KuxV2KuxV//2Q==</xapGImg:image>

              </rdf:li>

            </rdf:Alt>

          </xap:Thumbnails>

        </rdf:Description>

        <rdf:Description
   id="Description144"
   rdf:about="uuid:9dfcc10e-f4e2-4cbf-91b0-8deea2f1a998">
          <xapMM:DocumentID
   id="DocumentID146">
uuid:f3c53255-be8a-4b04-817b-695bf2c54c8b</xapMM:DocumentID>

        </rdf:Description>

        <rdf:Description
   id="Description148"
   rdf:about="uuid:9dfcc10e-f4e2-4cbf-91b0-8deea2f1a998">
          <dc:format
   id="format150">
image/svg+xml</dc:format>

          <dc:title
   id="title152">
            <rdf:Alt
   id="Alt154">
              <rdf:li
   id="li156"
   xml:lang="x-default">
filesave.ai</rdf:li>

            </rdf:Alt>

          </dc:title>

        </rdf:Description>

      </rdf:RDF>

    </x:xmpmeta>

    <xpacket
   id="xpacket158">
end='w'</xpacket>

  </metadata>

  <g
   id="Layer_1">
    <path
   id="path592"
   d="M9.416,5.208c-2.047,0-3.712,1.693-3.712,3.775V39.15c0,2.082,1.666,3.775,3.712,3.775h29.401     c2.047,0,3.712-1.693,3.712-3.775V8.983c0-2.082-1.665-3.775-3.712-3.775H9.416z"
   style="opacity:0.2;" />

    <path
   id="path593"
   d="M9.041,4.833c-2.047,0-3.712,1.693-3.712,3.775v30.167c0,2.082,1.666,3.775,3.712,3.775h29.401     c2.047,0,3.712-1.693,3.712-3.775V8.608c0-2.082-1.665-3.775-3.712-3.775H9.041z"
   style="opacity:0.2;" />

    <path
   id="path594"
   d="M8.854,4.646c-2.047,0-3.712,1.693-3.712,3.775v30.167c0,2.082,1.666,3.775,3.712,3.775h29.401     c2.047,0,3.712-1.693,3.712-3.775V8.42c0-2.082-1.665-3.775-3.712-3.775H8.854z"
   style="fill:#00008D;" />

    <path
   id="path595"
   d="M8.854,5.021c-1.84,0-3.337,1.525-3.337,3.4v30.167c0,1.875,1.497,3.4,3.337,3.4h29.401     c1.84,0,3.337-1.525,3.337-3.4V8.42c0-1.875-1.497-3.4-3.337-3.4H8.854z"
   style="fill:#00008D;" />

    <path
   d="M40.654,38.588c0,1.36-1.074,2.463-2.399,2.463H8.854c-1.326,0-2.4-1.103-2.4-2.463V8.42     c0-1.36,1.074-2.462,2.4-2.462h29.401c1.325,0,2.399,1.103,2.399,2.462V38.588z"
   style="fill:#FFFFFF;"
   id="path166_1_" />

    <linearGradient
   gradientTransform="matrix(0.1875 0 0 -0.1875 51.5 83.75)"
   y2="436.303"
   x2="-149.0464"
   y1="251.1436"
   x1="-149.0464"
   gradientUnits="userSpaceOnUse"
   id="path166_2_">
      <stop
   id="stop598"
   style="stop-color:#B4E2FF"
   offset="0" />

      <stop
   id="stop599"
   style="stop-color:#006DFF"
   offset="1" />

      
      
      
    </linearGradient>

    <path
   d="M40.654,38.588c0,1.36-1.074,2.463-2.399,2.463H8.854c-1.326,0-2.4-1.103-2.4-2.463V8.42     c0-1.36,1.074-2.462,2.4-2.462h29.401c1.325,0,2.399,1.103,2.399,2.462V38.588z"
   style="fill:url(#path166_2_);"
   id="path166" />

    <path
   id="path604"
   d="M8.854,6.521c-1.013,0-1.837,0.852-1.837,1.9v30.167c0,1.048,0.824,1.9,1.837,1.9h29.401     c1.013,0,1.837-0.853,1.837-1.9V8.42c0-1.048-0.824-1.9-1.837-1.9H8.854z"
   style="fill:#FFFFFF;" />

    <linearGradient
   y2="50.7231"
   x2="50.7728"
   y1="7.2559"
   x1="7.3057"
   gradientUnits="userSpaceOnUse"
   id="XMLID_1_">
      <stop
   id="stop606"
   style="stop-color:#94CAFF"
   offset="0" />

      <stop
   id="stop607"
   style="stop-color:#006DFF"
   offset="1" />

      
      
      
    </linearGradient>

    <path
   id="path611"
   d="M8.854,6.521c-1.013,0-1.837,0.852-1.837,1.9v30.167c0,1.048,0.824,1.9,1.837,1.9h29.401     c1.013,0,1.837-0.853,1.837-1.9V8.42c0-1.048-0.824-1.9-1.837-1.9H8.854z"
   style="fill:url(#XMLID_1_);" />

    <linearGradient
   y2="34.4368"
   x2="23.5039"
   y1="2.187"
   x1="23.5039"
   gradientUnits="userSpaceOnUse"
   id="XMLID_2_">
      <stop
   id="stop613"
   style="stop-color:#428AFF"
   offset="0" />

      <stop
   id="stop614"
   style="stop-color:#C9E6FF"
   offset="1" />

      
      
      
    </linearGradient>

    <path
   id="path618"
   d="M36.626,6.861c0,0-26.184,0-26.914,0c0,0.704,0,16.59,0,17.294c0.721,0,26.864,0,27.583,0     c0-0.704,0-16.59,0-17.294C36.988,6.861,36.626,6.861,36.626,6.861z"
   style="fill:url(#XMLID_2_);" />

    <polygon
   points="35.809,6.486 10.221,6.486 10.221,23.405 36.788,23.405 36.788,6.486 "
   style="fill:#FFFFFF;"
   id="path186_1_" />

    <linearGradient
   gradientTransform="matrix(0.1875 0 0 -0.1875 51.5 83.75)"
   y2="309.4482"
   x2="-206.815"
   y1="411.6699"
   x1="-104.5933"
   gradientUnits="userSpaceOnUse"
   id="path186_2_">
      <stop
   id="stop621"
   style="stop-color:#CCCCCC"
   offset="0" />

      <stop
   id="stop622"
   style="stop-color:#F0F0F0"
   offset="1" />

      
      
      
    </linearGradient>

    <polygon
   points="35.809,6.486 10.221,6.486 10.221,23.405 36.788,23.405 36.788,6.486 "
   style="fill:url(#path186_2_);"
   id="path186" />

    <path
   id="path627"
   d="M11.488,7.019c0,0.698,0,14.542,0,15.239c0.716,0,23.417,0,24.133,0c0-0.698,0-14.541,0-15.239     C34.904,7.019,12.204,7.019,11.488,7.019z"
   style="fill:#FFFFFF;stroke:#FFFFFF;stroke-width:0.1875;" />

    <linearGradient
   y2="19.7847"
   x2="18.4087"
   y1="3.5967"
   x1="34.5967"
   gradientUnits="userSpaceOnUse"
   id="XMLID_3_">
      <stop
   id="stop629"
   style="stop-color:#FFFFFF"
   offset="0" />

      <stop
   id="stop630"
   style="stop-color:#E6EDFF"
   offset="0.5506" />

      <stop
   id="stop631"
   style="stop-color:#FFFFFF"
   offset="1" />

      
      
      
      
      
    </linearGradient>

    <path
   id="path637"
   d="M11.488,7.019c0,0.698,0,14.542,0,15.239c0.716,0,23.417,0,24.133,0c0-0.698,0-14.541,0-15.239     C34.904,7.019,12.204,7.019,11.488,7.019z"
   style="fill:url(#XMLID_3_);stroke:#FFFFFF;stroke-width:0.1875;" />

    <linearGradient
   gradientTransform="matrix(0.1875 0 0 -0.1875 51.5 83.75)"
   y2="210.2074"
   x2="-108.8787"
   y1="300.0908"
   x1="-174.4409"
   gradientUnits="userSpaceOnUse"
   id="path205_1_">
      <stop
   id="stop639"
   style="stop-color:#003399"
   offset="0" />

      <stop
   id="stop640"
   style="stop-color:#0035ED"
   offset="0.2697" />

      <stop
   id="stop641"
   style="stop-color:#57ADFF"
   offset="1" />

      
      
      
      
      
    </linearGradient>

    <rect
   height="13.978"
   width="22.007"
   style="fill:url(#path205_1_);"
   y="26.479"
   x="12.154"
   id="path205" />

    <linearGradient
   y2="44.6251"
   x2="21.8687"
   y1="25.1875"
   x1="21.8687"
   gradientUnits="userSpaceOnUse"
   id="XMLID_4_">
      <stop
   id="stop649"
   style="stop-color:#DFDFDF"
   offset="0" />

      <stop
   id="stop650"
   style="stop-color:#7D7D99"
   offset="1" />

      
      
      
    </linearGradient>

    <path
   id="path654"
   d="M13.244,27.021c-0.311,0-0.563,0.252-0.563,0.563v13.104c0,0.312,0.252,0.563,0.563,0.563h17.249     c0.311,0,0.563-0.251,0.563-0.563V27.583c0-0.311-0.252-0.563-0.563-0.563H13.244z M18.85,30.697c0,0.871,0,5.078,0,5.949     c-0.683,0-2.075,0-2.759,0c0-0.871,0-5.078,0-5.949C16.775,30.697,18.167,30.697,18.85,30.697z"
   style="fill:url(#XMLID_4_);" />

    <linearGradient
   gradientTransform="matrix(0.1875 0 0 -0.1875 51.5 83.75)"
   y2="231.3219"
   x2="-158.0337"
   y1="288.0684"
   x1="-158.0337"
   gradientUnits="userSpaceOnUse"
   id="XMLID_5_">
      <stop
   id="stop656"
   style="stop-color:#F0F0F0"
   offset="0" />

      <stop
   id="stop657"
   style="stop-color:#CECEDB"
   offset="0.6348" />

      <stop
   id="stop658"
   style="stop-color:#B1B1C5"
   offset="0.8595" />

      <stop
   id="stop659"
   style="stop-color:#FFFFFF"
   offset="1" />

      
      
      
      
      
      
      
    </linearGradient>

    <path
   id="path667"
   d="M13.244,27.583v13.104h17.249V27.583H13.244z M19.413,37.209h-3.884v-7.074h3.884V37.209z"
   style="fill:url(#XMLID_5_);" />

    <linearGradient
   gradientTransform="matrix(0.1875 0 0 -0.1875 51.5 83.75)"
   y2="404.6693"
   x2="-68.1494"
   y1="388.4561"
   x1="-68.1494"
   gradientUnits="userSpaceOnUse"
   id="path228_1_">
      <stop
   id="stop669"
   style="stop-color:#3399FF"
   offset="0" />

      <stop
   id="stop670"
   style="stop-color:#000000"
   offset="1" />

      
      
      
    </linearGradient>

    <rect
   height="1.785"
   width="1.784"
   style="fill:url(#path228_1_);"
   y="9.031"
   x="37.83"
   id="path228" />

    <polyline
   points="0,48 0,0 48,0 48,48 "
   style="fill:none;"
   id="_x3C_Slice_x3E_" />

  </g>

  <rect
   style="font-size:12;fill:none;"
   transform="matrix(0.125000,0.000000,0.000000,0.125000,-41.51768,12.75884)"
   height="256"
   width="256"
   fill="none"
   id="rect810" />

  <g
   transform="matrix(0.207200,1.691268,-1.691268,0.207200,86.28419,53.75496)"
   id="g979">
    <path
   style="font-size:12;opacity:0.2;"
   transform="matrix(0.125000,0.000000,0.000000,0.125000,-41.51768,12.75884)"
   id="path731"
   d="M191.924,195.984c-11.613-36.127-13.717-42.67-14.859-44.064c0.119,0.076,0.289,0.178,0.289,0.178     l-78.55-87.455c-4.195-4.65-14.005,0.356-21.355,6.976c-7.283,6.542-13.32,15.773-9.37,20.564l78.944,87.543l0.533,0.094     l37.768,17.602l7.688,2.365L191.924,195.984z"
   opacity="0.2" />

    <path
   style="font-size:12;opacity:0.2;"
   transform="matrix(0.125000,0.000000,0.000000,0.125000,-41.51768,12.75884)"
   id="path732"
   d="M193.557,193.516c-11.611-36.125-13.713-42.67-14.855-44.064c0.117,0.072,0.287,0.178,0.287,0.178     l-78.545-87.455c-4.199-4.651-14.015,0.355-21.361,6.975c-7.281,6.545-13.32,15.773-9.368,20.566l78.945,87.539l0.533,0.1     l37.77,17.598l7.682,2.367L193.557,193.516z"
   opacity="0.2" />

    <path
   style="font-size:12;opacity:0.2;"
   transform="matrix(0.125000,0.000000,0.000000,0.125000,-41.51768,12.75884)"
   id="path733"
   d="M186.773,191.049c-11.613-36.127-13.713-42.672-14.863-44.068c0.121,0.074,0.295,0.18,0.295,0.18     L93.653,59.704c-4.192-4.65-14.009,0.359-21.354,6.978c-7.283,6.542-13.321,15.771-9.369,20.565l78.942,87.541l0.535,0.096     l37.768,17.598l7.686,2.367L186.773,191.049z"
   opacity="0.2" />

    <path
   style="font-size:12;fill:#ffffff;"
   transform="matrix(0.125000,0.000000,0.000000,0.125000,-41.51768,12.75884)"
   id="path734"
   d="M186.43,189.355c-11.613-36.125-13.713-42.666-14.863-44.061c0.123,0.072,0.293,0.18,0.293,0.18     L93.314,58.016c-4.199-4.651-14.015,0.357-21.359,6.977c-7.283,6.543-13.322,15.774-9.37,20.566l78.941,87.541l0.535,0.098     l37.771,17.598l7.686,2.363L186.43,189.355z"
   fill="#FFFFFF" />

    <path
   style="font-size:12;fill:url(#XMLID_11_);"
   transform="matrix(0.125000,0.000000,0.000000,0.125000,-41.51768,12.75884)"
   id="path741"
   d="M186.43,189.355c-11.613-36.125-13.713-42.666-14.863-44.061c0.123,0.072,0.293,0.18,0.293,0.18     L93.314,58.016c-4.199-4.651-14.015,0.357-21.359,6.977c-7.283,6.543-13.322,15.774-9.37,20.566l78.941,87.541l0.535,0.098     l37.771,17.598l7.686,2.363L186.43,189.355z"
   fill="url(#XMLID_11_)" />

    <path
   style="font-size:12;fill:url(#XMLID_12_);"
   transform="matrix(0.125000,0.000000,0.000000,0.125000,-41.51768,12.75884)"
   id="path748"
   d="M166.969,147.762l13.723,38.129l-36.371-17.902l0.168-0.152c-0.25-0.08-0.496-0.178-0.701-0.316     l-0.125,0.121l-75.303-83.57l0.123-0.104c-2.246-2.49,1.032-9.094,7.308-14.752c6.28-5.652,13.18-8.219,15.425-5.733     l75.292,83.565L166.969,147.762z"
   fill="url(#XMLID_12_)" />

    <path
   style="font-size:12;fill:url(#XMLID_13_);"
   transform="matrix(0.125000,0.000000,0.000000,0.125000,-41.51768,12.75884)"
   id="path758"
   d="M148.652,170.121c2.076-0.369,4.635-1.479,7.252-3.139c1.617-1.018,3.279-2.283,4.898-3.744     c1.455-1.303,2.736-2.666,3.84-4.01c2.076-2.531,3.322-5.213,3.781-7.424l-1.455-4.043l-0.463-0.715L91.707,64.028     c0.608,2.24-0.962,5.938-4.063,9.74c-1.134,1.389-2.441,2.789-3.945,4.141c-1.574,1.419-3.195,2.652-4.767,3.654     c-4.493,2.871-8.628,3.928-10.548,2.486l-0.025,0.021l75.303,83.57l0.125-0.121c0.205,0.139,0.451,0.236,0.701,0.316     l-0.168,0.152L148.652,170.121z"
   fill="url(#XMLID_13_)" />

    <path
   style="font-size:12;fill:#ffffff;"
   transform="matrix(0.125000,0.000000,0.000000,0.125000,-41.51768,12.75884)"
   id="path759"
   d="M68.083,83.41c1.732,1.772,5.994,0.776,10.643-2.194c1.541-0.982,3.132-2.193,4.677-3.586     c1.476-1.325,2.759-2.701,3.872-4.063c3.578-4.388,5.091-8.642,3.477-10.584l0.023-0.024l75.817,84.119     c0.635,2.262-0.588,6.498-3.754,10.357c-1.082,1.318-2.34,2.656-3.77,3.934c-1.588,1.434-3.219,2.676-4.807,3.676     c-4.74,3.006-9.303,4.199-11.016,2.301c-0.393-0.439-2.098-2.336-2.145-2.406L67.845,83.626L68.083,83.41z"
   fill="#FFFFFF" />

    <path
   style="font-size:12;fill:#ffffff;"
   transform="matrix(0.125000,0.000000,0.000000,0.125000,-41.51768,12.75884)"
   id="path760"
   d="M75.79,69.215c6.28-5.652,13.18-8.219,15.425-5.733l16.961,18.828l1.152,26.49l-17.973,0.784     L68.359,84.071l0.123-0.104C66.236,81.477,69.514,74.874,75.79,69.215z"
   fill="#FFFFFF" />

    <path
   style="font-size:12;fill:#ffffff;"
   transform="matrix(0.125000,0.000000,0.000000,0.125000,-41.51768,12.75884)"
   id="path761"
   d="M68.083,83.41c1.732,1.772,5.994,0.776,10.643-2.194c1.541-0.982,3.132-2.193,4.677-3.586     c1.476-1.325,2.759-2.701,3.872-4.063c3.578-4.388,5.091-8.642,3.477-10.584l0.023-0.024l75.817,84.119     c0.635,2.262-0.588,6.498-3.754,10.357c-1.082,1.318-2.34,2.656-3.77,3.934c-1.588,1.434-3.219,2.676-4.807,3.676     c-4.74,3.006-9.303,4.199-11.016,2.301c-0.393-0.439-2.098-2.336-2.145-2.406L67.845,83.626L68.083,83.41z"
   fill="#FFFFFF" />

    <path
   style="font-size:12;fill:url(#XMLID_14_);"
   transform="matrix(0.125000,0.000000,0.000000,0.125000,-41.51768,12.75884)"
   id="path768"
   d="M75.79,69.215c6.28-5.652,13.18-8.219,15.425-5.733l16.961,18.828l1.152,26.49l-17.973,0.784     L68.359,84.071l0.123-0.104C66.236,81.477,69.514,74.874,75.79,69.215z"
   fill="url(#XMLID_14_)" />

    <path
   style="font-size:12;fill:url(#XMLID_15_);"
   transform="matrix(0.125000,0.000000,0.000000,0.125000,-41.51768,12.75884)"
   id="path778"
   d="M68.083,83.41c1.732,1.772,5.994,0.776,10.643-2.194c1.541-0.982,3.132-2.193,4.677-3.586     c1.476-1.325,2.759-2.701,3.872-4.063c3.578-4.388,5.091-8.642,3.477-10.584l0.023-0.024l75.817,84.119     c0.635,2.262-0.588,6.498-3.754,10.357c-1.082,1.318-2.34,2.656-3.77,3.934c-1.588,1.434-3.219,2.676-4.807,3.676     c-4.74,3.006-9.303,4.199-11.016,2.301c-0.393-0.439-2.098-2.336-2.145-2.406L67.845,83.626L68.083,83.41z"
   fill="url(#XMLID_15_)" />

    <path
   style="font-size:12;fill:url(#XMLID_16_);"
   transform="matrix(0.125000,0.000000,0.000000,0.125000,-41.51768,12.75884)"
   id="path790"
   d="M74.357,90.713c0,0,6.036-0.212,10.685-3.182c1.542-0.983,3.132-2.193,4.677-3.586     c1.477-1.326,2.76-2.701,3.873-4.064c2.928-3.589,4.469-7.088,4.049-9.307l-6.865-7.617l-0.023,0.024     c1.614,1.942,0.102,6.196-3.477,10.584c-1.113,1.362-2.396,2.738-3.872,4.063c-1.545,1.393-3.136,2.604-4.677,3.586     c-4.648,2.971-8.91,3.967-10.643,2.194l-0.238,0.217l73.256,81.311c0.047,0.07,1.752,1.967,2.145,2.406     c0.342,0.377,0.799,0.627,1.344,0.771L74.357,90.713z"
   fill="url(#XMLID_16_)" />

    <path
   style="font-size:12;fill:#003333;"
   transform="matrix(0.125000,0.000000,0.000000,0.125000,-41.51768,12.75884)"
   id="path791"
   d="M172.035,175.354c-1.635,1.477-3.307,2.764-4.949,3.84l13.605,6.697l-5.096-14.156     C174.537,172.953,173.352,174.176,172.035,175.354z"
   fill="#003333" />

    <path
   style="font-size:12;opacity:0.5;fill:#ffffff;"
   transform="matrix(0.125000,0.000000,0.000000,0.125000,-41.51768,12.75884)"
   id="path792"
   d="M163.121,157.053L86.968,73.93c0.1-0.12,0.213-0.242,0.307-0.364     c1.428-1.752,2.52-3.49,3.225-5.058l75.768,82.707C165.715,153.039,164.668,155.082,163.121,157.053z"
   fill="#FFFFFF"
   opacity="0.5" />

    <path
   style="font-size:12;opacity:0.5;fill:#ffffff;"
   transform="matrix(0.125000,0.000000,0.000000,0.125000,-41.51768,12.75884)"
   id="path793"
   d="M87.275,73.566c0.634-0.774,1.189-1.548,1.694-2.3l76.015,82.974     c-0.578,1.063-1.283,2.146-2.146,3.193c-0.744,0.896-1.566,1.805-2.465,2.697L84.152,76.932     C85.316,75.824,86.361,74.692,87.275,73.566z"
   fill="#FFFFFF"
   opacity="0.5" />

  </g>

</svg>
