<?xml version="1.0" encoding="UTF-8" standalone="no"?>
<!-- Created with Sodipodi ("http://www.sodipodi.com/") -->
<svg
   xmlns:xml="http://www.w3.org/XML/1998/namespace"
   xmlns:svg="http://www.w3.org/2000/svg"
   xmlns="http://www.w3.org/2000/svg"
   xmlns:sodipodi="http://inkscape.sourceforge.net/DTD/sodipodi-0.dtd"
   xmlns:inkscape="http://www.inkscape.org/namespaces/inkscape"
   inkscape:version="0.41"
   sodipodi:docbase="/mnt/vdrsrc/xxv/devlop/XXV-Skins/stone/images/artwork"
   sodipodi:docname="forward.svg"
   sodipodi:version="0.32"
   id="svg653"
   xml:space="preserve"
   style="overflow:visible;enable-background:new 0 0 256 256"
   viewBox="0 0 256 256"
   height="48pt"
   width="48pt">
  <defs
     id="defs695" />
  <sodipodi:namedview
     inkscape:current-layer="svg653"
     inkscape:window-y="170"
     inkscape:window-x="93"
     inkscape:window-height="541"
     inkscape:window-width="745"
     inkscape:cy="24.000000"
     inkscape:cx="24.000000"
     inkscape:zoom="7.4791667"
     id="base" />
  <g
     transform="translate(1.069638,1.069638)"
     id="Layer_1">
    <path
       id="path657"
       d="M 116.72800,22.158000 C 116.73000,22.159000 119.60700,23.931000 119.60700,23.931000 C 122.63000,25.792000 149.92300,42.718000 177.03400,63.636000 C 215.63500,93.417000 233.61100,115.13900 233.61100,131.99900 L 233.61100,131.99900 C 233.61100,148.85800 215.63400,170.58100 177.03400,200.36100 C 149.86900,221.32000 122.62400,238.21100 119.60700,240.06700 L 116.72600,241.84000 C 114.16000,243.42200 110.93100,243.49000 108.30100,242.01900 C 105.67000,240.54800 104.03600,237.76300 104.03600,234.75100 C 104.03600,234.75100 104.03600,192.26600 104.03600,186.02200 C 97.530000,186.02200 34.712000,186.02200 34.712000,186.02200 C 30.122000,186.02200 26.387000,182.28800 26.387000,177.69800 L 26.387000,86.302000 C 26.387000,81.712000 30.121000,77.977000 34.712000,77.977000 C 34.712000,77.977000 97.529000,77.977000 104.03600,77.977000 C 104.03600,71.734000 104.03600,29.248000 104.03600,29.248000 C 104.03600,26.234000 105.67100,23.449000 108.30300,21.980000 C 110.93100,20.509000 114.16000,20.577000 116.72800,22.158000 z "
       style="opacity:0.20000000;" />
    <path
       id="path658"
       d="M 115.72800,20.158000 C 115.73000,20.159000 118.60700,21.931000 118.60700,21.931000 C 121.63000,23.792000 148.92300,40.718000 176.03400,61.636000 C 214.63500,91.417000 232.61100,113.13900 232.61100,129.99900 L 232.61100,129.99900 C 232.61100,146.85800 214.63400,168.58100 176.03400,198.36100 C 148.86900,219.32000 121.62400,236.21100 118.60700,238.06700 L 115.72600,239.84000 C 113.16000,241.42200 109.93100,241.49000 107.30100,240.01900 C 104.67000,238.54800 103.03600,235.76300 103.03600,232.75100 C 103.03600,232.75100 103.03600,190.26600 103.03600,184.02200 C 96.530000,184.02200 33.712000,184.02200 33.712000,184.02200 C 29.122000,184.02200 25.387000,180.28800 25.387000,175.69800 L 25.387000,84.302000 C 25.387000,79.712000 29.121000,75.977000 33.712000,75.977000 C 33.712000,75.977000 96.529000,75.977000 103.03600,75.977000 C 103.03600,69.734000 103.03600,27.248000 103.03600,27.248000 C 103.03600,24.234000 104.67100,21.449000 107.30300,19.980000 C 109.93100,18.509000 113.16000,18.577000 115.72800,20.158000 z "
       style="opacity:0.20000000;" />
    <linearGradient
       gradientTransform="matrix(-1.000000,0.000000,0.000000,1.000000,256.0000,0.000000)"
       y2="188.43291"
       x2="204.80161"
       y1="67.090302"
       x1="83.459000"
       gradientUnits="userSpaceOnUse"
       id="XMLID_6_">
      <stop
         id="stop660"
         style="stop-color:#0066CC"
         offset="0" />
      <stop
         id="stop661"
         style="stop-color:#003399"
         offset="1" />
    </linearGradient>
    <path
       id="path665"
       d="M 114.72800,18.158000 C 114.73000,18.159000 117.60700,19.931000 117.60700,19.931000 C 120.63000,21.792000 147.92300,38.718000 175.03400,59.636000 C 213.63500,89.417000 231.61100,111.13900 231.61100,127.99900 L 231.61100,127.99900 C 231.61100,144.85800 213.63400,166.58100 175.03400,196.36100 C 147.86900,217.32000 120.62400,234.21100 117.60700,236.06700 L 114.72600,237.84000 C 112.16000,239.42200 108.93100,239.49000 106.30100,238.01900 C 103.67000,236.54800 102.03600,233.76300 102.03600,230.75100 C 102.03600,230.75100 102.03600,188.26600 102.03600,182.02200 C 95.530000,182.02200 32.712000,182.02200 32.712000,182.02200 C 28.122000,182.02200 24.387000,178.28800 24.387000,173.69800 L 24.387000,82.302000 C 24.387000,77.712000 28.121000,73.977000 32.712000,73.977000 C 32.712000,73.977000 95.529000,73.977000 102.03600,73.977000 C 102.03600,67.734000 102.03600,25.248000 102.03600,25.248000 C 102.03600,22.234000 103.67100,19.449000 106.30300,17.980000 C 108.93100,16.509000 112.16000,16.577000 114.72800,18.158000 z "
       style="fill:url(#XMLID_6_);" />
    <linearGradient
       gradientTransform="matrix(-1.000000,0.000000,0.000000,1.000000,256.0000,0.000000)"
       y2="188.41530"
       x2="204.80540"
       y1="67.087402"
       x1="83.477501"
       gradientUnits="userSpaceOnUse"
       id="XMLID_7_">
      <stop
         id="stop667"
         style="stop-color:#0066CC"
         offset="0" />
      <stop
         id="stop668"
         style="stop-color:#003399"
         offset="1" />
    </linearGradient>
    <path
       id="path672"
       d="M 112.83900,21.224000 L 115.72000,22.997000 L 115.72000,22.997000 C 118.72400,24.847000 145.85800,41.673000 172.83600,62.487000 C 209.96400,91.132000 228.01200,112.56200 228.01200,128.00000 C 228.01200,143.43800 209.96400,164.86600 172.83600,193.51200 C 145.87400,214.31400 118.72800,231.15300 115.72000,233.00300 L 112.83900,234.77600 C 111.38100,235.67400 109.55100,235.71400 108.05800,234.87900 C 106.56300,234.04300 105.63700,232.46500 105.63700,230.75300 C 105.63700,230.75300 105.63700,186.37300 105.63700,178.42400 C 97.303000,178.42400 32.713000,178.42400 32.713000,178.42400 C 30.104000,178.42400 27.988000,176.30900 27.988000,173.69900 L 27.988000,82.302000 C 27.988000,79.693000 30.104000,77.577000 32.713000,77.577000 C 32.713000,77.577000 97.302000,77.577000 105.63700,77.577000 C 105.63700,69.628000 105.63700,25.247000 105.63700,25.247000 C 105.63700,23.535000 106.56300,21.957000 108.05800,21.122000 C 109.55100,20.287000 111.38200,20.326000 112.83900,21.224000 z "
       style="fill:url(#XMLID_7_);" />
    <linearGradient
       gradientTransform="matrix(-1.000000,0.000000,0.000000,1.000000,256.0000,0.000000)"
       y2="188.39320"
       x2="204.80679"
       y1="66.984398"
       x1="83.397903"
       gradientUnits="userSpaceOnUse"
       id="XMLID_8_">
      <stop
         id="stop674"
         style="stop-color:#FFFFFF"
         offset="0" />
      <stop
         id="stop675"
         style="stop-color:#F0F0F0"
         offset="1" />
    </linearGradient>
    <path
       id="path679"
       d="M 113.24200,27.021000 C 117.73600,29.787000 223.28600,95.148000 223.28600,128.00000 C 223.28600,160.85200 117.73600,226.21300 113.24200,228.97900 L 110.36100,230.75200 C 110.36100,230.75200 110.36100,177.22500 110.36100,173.69800 C 106.76300,173.69800 32.712000,173.69800 32.712000,173.69800 L 32.712000,82.302000 C 32.712000,82.302000 106.76300,82.302000 110.36100,82.302000 C 110.36100,78.775000 110.36100,25.247000 110.36100,25.247000 L 113.24200,27.021000 z "
       style="fill:url(#XMLID_8_);" />
    <linearGradient
       gradientTransform="matrix(-1.000000,0.000000,0.000000,1.000000,256.0000,0.000000)"
       y2="189.30540"
       x2="203.91040"
       y1="67.966797"
       x1="82.571800"
       gradientUnits="userSpaceOnUse"
       id="XMLID_9_">
      <stop
         id="stop681"
         style="stop-color:#FFFFFF"
         offset="0" />
      <stop
         id="stop682"
         style="stop-color:#DFDFDF"
         offset="1" />
    </linearGradient>
    <path
       id="path686"
       d="M 216.98600,128.00000 C 216.98600,148.50500 158.05400,193.10000 116.66100,219.40200 C 116.66100,204.83700 116.66100,167.39800 116.66100,167.39800 C 116.66100,167.39800 49.651000,167.39800 39.013000,167.39800 C 39.013000,157.28400 39.013000,98.715000 39.013000,88.601000 C 49.651000,88.601000 116.66100,88.601000 116.66100,88.601000 C 116.66100,88.601000 116.66100,51.162000 116.66100,36.596000 C 158.05500,62.896000 216.98600,107.48800 216.98600,128.00000 z "
       style="fill:url(#XMLID_9_);" />
    <linearGradient
       gradientTransform="matrix(-1.000000,0.000000,0.000000,1.000000,256.0000,0.000000)"
       y2="184.88150"
       x2="195.35580"
       y1="92.283699"
       x1="102.75830"
       gradientUnits="userSpaceOnUse"
       id="XMLID_10_">
      <stop
         id="stop688"
         style="stop-color:#428AFF"
         offset="0" />
      <stop
         id="stop689"
         style="stop-color:#003399"
         offset="1" />
    </linearGradient>
    <path
       id="path693"
       d="M 155.73500,80.997000 L 155.73500,80.997000 C 195.38100,111.26200 201.87600,125.27800 202.82500,128.00200 C 201.87500,130.72800 195.37000,144.74500 155.73500,175.00200 C 148.10400,180.82800 139.69300,186.90500 130.70200,193.11200 C 130.70200,182.05000 130.70200,153.35900 130.70200,153.35900 C 130.70200,153.35900 61.040000,153.35900 53.053000,153.35900 C 53.053000,146.29200 53.053000,109.70900 53.053000,102.64100 C 61.040000,102.64100 130.70200,102.64100 130.70200,102.64100 C 130.70200,102.64100 130.70200,73.949000 130.70200,62.887000 C 139.68700,69.090000 148.09900,75.167000 155.73500,80.997000 z "
       style="fill:url(#XMLID_10_);" />
  </g>
</svg>
