<?xml version="1.0" encoding="UTF-8" standalone="no"?>
<!-- Created with Sodipodi ("http://www.sodipodi.com/") -->
<svg
   xmlns:xml="http://www.w3.org/XML/1998/namespace"
   xmlns:svg="http://www.w3.org/2000/svg"
   xmlns="http://www.w3.org/2000/svg"
   xmlns:sodipodi="http://inkscape.sourceforge.net/DTD/sodipodi-0.dtd"
   xmlns:inkscape="http://www.inkscape.org/namespaces/inkscape"
   inkscape:version="0.41"
   sodipodi:docbase="/mnt/vdrsrc/xxv/devlop/XXV-Skins/stone/images/artwork"
   sodipodi:docname="home.svg"
   sodipodi:version="0.32"
   id="svg696"
   xml:space="preserve"
   style="overflow:visible;enable-background:new 0 0 256 256"
   viewBox="0 0 256 256"
   height="48pt"
   width="48pt">
  <defs
     id="defs731" />
  <sodipodi:namedview
     inkscape:current-layer="svg696"
     inkscape:window-y="0"
     inkscape:window-x="0"
     inkscape:window-height="541"
     inkscape:window-width="791"
     inkscape:cy="24.000000"
     inkscape:cx="24.000000"
     inkscape:zoom="7.4791667"
     id="base" />
  <g
     transform="translate(0.356546,0.356546)"
     id="Layer_1">
    <path
       id="path700"
       d="M 21.234000,145.27100 C 21.235000,145.26900 23.007000,142.39200 23.007000,142.39200 C 24.868000,139.36900 41.794000,112.07600 62.712000,84.964000 C 92.493000,46.364000 114.21500,28.387000 131.07600,28.387000 L 131.07600,28.387000 C 147.93400,28.387000 169.65700,46.364000 199.43700,84.964000 C 220.39700,112.13000 237.28800,139.37400 239.14400,142.39200 L 240.91700,145.27300 C 242.49800,147.83800 242.56600,151.06800 241.09500,153.69800 C 239.62500,156.32900 236.83900,157.96300 233.82800,157.96300 C 233.82800,157.96300 191.34200,157.96300 185.09800,157.96300 C 185.09800,164.47000 185.09800,227.28700 185.09800,227.28700 C 185.09800,231.87700 181.36500,235.61100 176.77400,235.61100 L 85.377000,235.61200 C 80.787000,235.61200 77.052000,231.87700 77.052000,227.28700 C 77.052000,227.28700 77.052000,164.47100 77.052000,157.96300 C 70.809000,157.96300 28.323000,157.96300 28.323000,157.96300 C 25.309000,157.96300 22.524000,156.32800 21.055000,153.69600 C 19.584000,151.06800 19.652000,147.84000 21.234000,145.27100 z "
       style="opacity:0.20000000;" />
    <path
       id="path701"
       d="M 19.234000,143.27100 C 19.235000,143.26900 21.007000,140.39200 21.007000,140.39200 C 22.868000,137.36900 39.794000,110.07600 60.712000,82.964000 C 90.493000,44.364000 112.21500,26.387000 129.07600,26.387000 L 129.07600,26.387000 C 145.93400,26.387000 167.65700,44.364000 197.43700,82.964000 C 218.39700,110.13000 235.28800,137.37400 237.14400,140.39200 L 238.91700,143.27300 C 240.49800,145.83800 240.56600,149.06800 239.09500,151.69800 C 237.62500,154.32900 234.83900,155.96300 231.82800,155.96300 C 231.82800,155.96300 189.34200,155.96300 183.09800,155.96300 C 183.09800,162.47000 183.09800,225.28700 183.09800,225.28700 C 183.09800,229.87700 179.36500,233.61100 174.77400,233.61100 L 83.377000,233.61200 C 78.787000,233.61200 75.052000,229.87700 75.052000,225.28700 C 75.052000,225.28700 75.052000,162.47100 75.052000,155.96300 C 68.809000,155.96300 26.323000,155.96300 26.323000,155.96300 C 23.309000,155.96300 20.524000,154.32800 19.055000,151.69600 C 17.584000,149.06800 17.652000,145.84000 19.234000,143.27100 z "
       style="opacity:0.20000000;" />
    <linearGradient
       gradientTransform="matrix(0.000000,1.000000,1.000000,0.000000,-4.882813e-4,-9.765625e-4)"
       y2="188.43280"
       x2="204.80240"
       y1="67.090797"
       x1="83.460403"
       gradientUnits="userSpaceOnUse"
       id="XMLID_5_">
      <stop
         id="stop703"
         style="stop-color:#0066CC"
         offset="0" />
      <stop
         id="stop704"
         style="stop-color:#003399"
         offset="1" />
    </linearGradient>
    <path
       id="path708"
       d="M 18.158000,141.27100 C 18.159000,141.26900 19.931000,138.39200 19.931000,138.39200 C 21.792000,135.36900 38.718000,108.07600 59.636000,80.964000 C 89.417000,42.365000 111.14000,24.388000 128.00000,24.388000 L 128.00000,24.388000 C 144.85900,24.388000 166.58200,42.365000 196.36200,80.965000 C 217.32200,108.13100 234.21300,135.37500 236.06900,138.39300 L 237.84200,141.27400 C 239.42300,143.83900 239.49100,147.06900 238.02000,149.69900 C 236.55000,152.33000 233.76400,153.96400 230.75300,153.96400 C 230.75300,153.96400 188.26700,153.96400 182.02300,153.96400 C 182.02300,160.47100 182.02300,223.28800 182.02300,223.28800 C 182.02300,227.87800 178.29000,231.61200 173.69900,231.61200 L 82.302000,231.61300 C 77.712000,231.61300 73.977000,227.87800 73.977000,223.28800 C 73.977000,223.28800 73.977000,160.47200 73.977000,153.96400 C 67.734000,153.96400 25.248000,153.96400 25.248000,153.96400 C 22.234000,153.96400 19.449000,152.32900 17.980000,149.69700 C 16.508000,147.06800 16.576000,143.84000 18.158000,141.27100 z "
       style="fill:url(#XMLID_5_);" />
    <linearGradient
       gradientTransform="matrix(0.000000,1.000000,1.000000,0.000000,-4.882813e-4,-9.765625e-4)"
       y2="188.39320"
       x2="204.80730"
       y1="66.984398"
       x1="83.398399"
       gradientUnits="userSpaceOnUse"
       id="XMLID_6_">
      <stop
         id="stop710"
         style="stop-color:#FFFFFF"
         offset="0" />
      <stop
         id="stop711"
         style="stop-color:#F0F0F0"
         offset="1" />
    </linearGradient>
    <path
       id="path715"
       d="M 27.020000,142.75700 C 29.787000,138.26400 95.147000,32.713000 128.00000,32.713000 C 160.85100,32.713000 226.21300,138.26300 228.98000,142.75700 L 230.75300,145.63800 C 230.75300,145.63800 177.22600,145.63800 173.69800,145.63800 C 173.69800,149.23700 173.69800,223.28700 173.69800,223.28700 L 82.301000,223.28700 C 82.301000,223.28700 82.301000,149.23600 82.301000,145.63800 C 78.774000,145.63800 25.246000,145.63800 25.246000,145.63800 L 27.020000,142.75700 z "
       style="fill:url(#XMLID_6_);" />
    <linearGradient
       gradientTransform="matrix(0.000000,1.000000,1.000000,0.000000,-4.882813e-4,-9.765625e-4)"
       y2="189.30490"
       x2="203.91090"
       y1="67.966301"
       x1="82.572304"
       gradientUnits="userSpaceOnUse"
       id="XMLID_7_">
      <stop
         id="stop717"
         style="stop-color:#FFFFFF"
         offset="0" />
      <stop
         id="stop718"
         style="stop-color:#DFDFDF"
         offset="1" />
    </linearGradient>
    <path
       id="path722"
       d="M 128.00000,39.013000 C 148.50400,39.013000 193.09900,97.944000 219.40300,139.33800 C 204.83700,139.33800 167.39800,139.33800 167.39800,139.33800 C 167.39800,139.33800 167.39800,206.34900 167.39800,216.98600 C 157.28400,216.98600 98.716000,216.98700 88.602000,216.98700 C 88.602000,206.34900 88.602000,139.33800 88.602000,139.33800 C 88.602000,139.33800 51.163000,139.33800 36.597000,139.33800 C 62.895000,97.944000 107.48700,39.013000 128.00000,39.013000 z "
       style="fill:url(#XMLID_7_);" />
    <linearGradient
       gradientTransform="matrix(0.000000,1.000000,1.000000,0.000000,-4.882813e-4,-9.765625e-4)"
       y2="184.88100"
       x2="195.35629"
       y1="92.283203"
       x1="102.75880"
       gradientUnits="userSpaceOnUse"
       id="XMLID_8_">
      <stop
         id="stop724"
         style="stop-color:#428AFF"
         offset="0" />
      <stop
         id="stop725"
         style="stop-color:#003399"
         offset="1" />
    </linearGradient>
    <path
       id="path729"
       d="M 80.997000,100.26400 L 80.997000,100.26400 C 111.26200,60.619000 125.27800,54.123000 128.00200,53.174000 C 130.72800,54.125000 144.74400,60.630000 175.00200,100.26400 C 180.82700,107.89400 186.90400,116.30600 193.11100,125.29800 C 182.05000,125.29800 153.35800,125.29800 153.35800,125.29800 C 153.35800,125.29800 153.35800,194.95900 153.35800,202.94600 C 146.29200,202.94600 109.70900,202.94600 102.64100,202.94600 C 102.64100,194.95900 102.64100,125.29800 102.64100,125.29800 C 102.64100,125.29800 73.949000,125.29800 62.887000,125.29800 C 69.090000,116.31300 75.167000,107.90100 80.997000,100.26400 z "
       style="fill:url(#XMLID_8_);" />
  </g>
</svg>
