<?xml version="1.0" encoding="UTF-8" standalone="no"?>
<!-- Created with Sodipodi ("http://www.sodipodi.com/") -->
<svg
   xmlns:xml="http://www.w3.org/XML/1998/namespace"
   xmlns:dc="http://purl.org/dc/elements/1.1/"
   xmlns:cc="http://web.resource.org/cc/"
   xmlns:rdf="http://www.w3.org/1999/02/22-rdf-syntax-ns#"
   xmlns:svg="http://www.w3.org/2000/svg"
   xmlns="http://www.w3.org/2000/svg"
   xmlns:sodipodi="http://inkscape.sourceforge.net/DTD/sodipodi-0.dtd"
   xmlns:inkscape="http://www.inkscape.org/namespaces/inkscape"
   inkscape:export-ydpi="48.000000"
   inkscape:export-xdpi="48.000000"
   inkscape:export-filename="/mnt/vdrsrc/xxv/devlop/XXV-Skins/stone/images/new.png"
   sodipodi:docbase="/mnt/vdrsrc/xxv/devlop/XXV-Skins/stone/images/artwork"
   sodipodi:docname="new.svg"
   inkscape:version="0.41"
   sodipodi:version="0.32"
   id="svg1"
   xml:space="preserve"
   viewBox="0 0 24 24"
   height="24pt"
   width="24pt">
  <defs
     id="defs59">
		
		
		
		
	
			

			

			

			

			

			

			

			

			

		</defs>
  <sodipodi:namedview
     inkscape:current-layer="svg1"
     inkscape:window-y="0"
     inkscape:window-x="0"
     inkscape:window-height="949"
     inkscape:window-width="1175"
     inkscape:cy="15.000000"
     inkscape:cx="15.000000"
     inkscape:zoom="25.566667"
     inkscape:pageshadow="2"
     inkscape:pageopacity="0.0"
     borderopacity="1.0"
     bordercolor="#666666"
     pagecolor="#ffffff"
     id="base" />
  <g
     transform="translate(-3.342663e-2,-0.266574)"
     style="fill:#ffffff;fill-rule:nonzero;stroke:#000000;stroke-miterlimit:4.0000000;"
     id="Layer_x0020_1">
    <path
       id="path5"
       d="M 4.8000000,1.5000000 C 3.2000000,1.5000000 2.0000000,2.7000000 2.0000000,4.2000000 L 2.0000000,20.400000 C 2.0000000,21.900000 3.2000000,23.100000 4.7000000,23.100000 L 19.200000,23.100000 C 20.700000,23.100000 22.000000,21.900000 22.000000,20.400000 L 22.000000,4.2000000 C 22.000000,2.7000000 20.800000,1.5000000 19.200000,1.5000000 L 4.8000000,1.5000000 z "
       style="fill:#000000;stroke:none;" />
    <linearGradient
       y2="21.244400"
       x2="17.008499"
       y1="3.7808001"
       x1="6.9555998"
       gradientUnits="userSpaceOnUse"
       id="aigrd1">
      <stop
         id="stop9"
         style="stop-color:#F0F0F0"
         offset="0" />
      <stop
         id="stop11"
         style="stop-color:#D6D6D6"
         offset="1" />
    </linearGradient>
    <path
       id="path14"
       d="M 20.600000,20.400000 C 20.600000,21.200000 19.900000,21.900000 19.100000,21.900000 L 4.6000000,21.900000 C 3.8000000,21.900000 3.1000000,21.200000 3.1000000,20.400000 L 3.1000000,4.2000000 C 3.1000000,3.4000000 3.8000000,2.7000000 4.6000000,2.7000000 L 19.100000,2.7000000 C 19.900000,2.7000000 20.600000,3.4000000 20.600000,4.2000000 L 20.600000,20.400000 z "
       style="fill:url(#aigrd1);stroke:none;" />
    <g
       id="g16">
      <radialGradient
         gradientUnits="userSpaceOnUse"
         fy="15.777300"
         fx="4.6206002"
         r="0.65700001"
         cy="15.777300"
         cx="4.6206002"
         id="aigrd2">
        <stop
           id="stop20"
           style="stop-color:#F0F0F0"
           offset="0" />
        <stop
           id="stop22"
           style="stop-color:#474747"
           offset="1" />
      </radialGradient>
      <path
         id="path25"
         d="M 4.9000000,15.600000 C 4.9000000,15.800000 4.7000000,16.000000 4.5000000,16.000000 C 4.2000000,16.000000 4.0000000,15.800000 4.0000000,15.600000 C 4.0000000,15.400000 4.2000000,15.200000 4.4000000,15.200000 C 4.6000000,15.200000 4.8000000,15.400000 4.8000000,15.600000 L 4.9000000,15.600000 z "
         style="fill:url(#aigrd2);stroke:none;" />
      <radialGradient
         gradientUnits="userSpaceOnUse"
         fy="9.5277996"
         fx="4.6206002"
         r="0.65750003"
         cy="9.5277996"
         cx="4.6206002"
         id="aigrd3">
        <stop
           id="stop29"
           style="stop-color:#F0F0F0"
           offset="0" />
        <stop
           id="stop31"
           style="stop-color:#474747"
           offset="1" />
      </radialGradient>
      <path
         id="path34"
         d="M 4.9000000,9.3000000 C 4.9000000,9.5000000 4.7000000,9.7000000 4.5000000,9.7000000 C 4.2000000,9.8000000 4.0000000,9.6000000 4.0000000,9.3000000 C 4.0000000,9.1000000 4.2000000,8.9000000 4.4000000,8.9000000 C 4.6000000,8.9000000 4.8000000,9.1000000 4.8000000,9.3000000 L 4.9000000,9.3000000 z "
         style="fill:url(#aigrd3);stroke:none;" />
    </g>
    <path
       id="path37"
       d="M 6.0000000,21.900000 L 5.8000000,21.900000 L 5.8000000,3.0000000 L 6.0000000,3.0000000 L 6.0000000,21.900000 z "
       style="stroke:none;" />
    <linearGradient
       y2="21.233200"
       x2="5.5549002"
       y1="3.5645001"
       x1="5.7778001"
       gradientUnits="userSpaceOnUse"
       id="aigrd4">
      <stop
         id="stop41"
         style="stop-color:#EDEDED"
         offset="0" />
      <stop
         id="stop43"
         style="stop-color:#CACACA"
         offset="1" />
    </linearGradient>
    <path
       id="path46"
       d="M 5.8000000,21.900000 L 5.6000000,21.900000 L 5.6000000,3.0000000 L 5.8000000,3.0000000 L 5.8000000,21.900000 z "
       style="fill:url(#aigrd4);stroke:none;" />
    <path
       id="path48"
       d="M 3.8000000,4.7000000 L 3.5000000,21.400000 C 3.3000000,21.200000 3.2000000,20.600000 3.2000000,20.600000 L 3.2000000,4.1000000 C 3.2000000,4.1000000 3.2000000,3.7000000 3.6000000,3.2000000 C 4.0000000,2.7000000 4.7000000,2.7000000 4.7000000,2.7000000 L 19.500000,2.7000000 L 5.1000000,3.4000000 C 4.5000000,3.4000000 4.2000000,3.7000000 4.1000000,3.8000000 C 4.0000000,4.0000000 3.8000000,4.4000000 3.8000000,4.7000000 z "
       style="stroke:none;" />
    <path
       id="path50"
       d="M 20.000000,19.900000 L 20.300000,3.2000000 C 20.600000,3.5000000 20.700000,4.0000000 20.700000,4.0000000 L 20.700000,20.500000 C 20.700000,20.500000 20.700000,20.900000 20.300000,21.400000 C 19.900000,21.900000 19.200000,21.900000 19.200000,21.900000 L 4.4000000,21.900000 L 18.600000,21.200000 C 19.200000,21.200000 19.500000,20.900000 19.600000,20.800000 C 19.700000,20.700000 19.900000,20.300000 19.900000,19.900000 L 20.000000,19.900000 z "
       style="fill:#bebebe;stroke:none;" />
  </g>
  <g
     transform="translate(-3.342663e-2,3.342619e-2)"
     style="fill-rule:nonzero;stroke:#000000;stroke-miterlimit:4.0000000;"
     id="Layer_x0020_2">
    <path
       id="path55"
       d="M 24.000000,24.000000 L 0.0000000,24.000000 L 0.0000000,0.0000000 L 24.000000,0.0000000 L 24.000000,24.000000 z "
       style="fill:none;stroke:none;" />
  </g>
  <metadata
     id="metadata60">
    <rdf:RDF
       id="RDF61">
      <cc:Work
         id="Work62"
         rdf:about="">
        <dc:format
           id="format63">image/svg+xml</dc:format>
        <dc:type
           rdf:resource="http://purl.org/dc/dcmitype/StillImage"
           id="type65" />
      </cc:Work>
    </rdf:RDF>
  </metadata>
  <path
     style="fill:none;fill-rule:nonzero;stroke:#878383;stroke-width:1.0296700;stroke-linecap:round;stroke-linejoin:round;stroke-miterlimit:4.0000000;stroke-opacity:1.0000000"
     d="M 14.114394,0.63239827 L 17.038665,6.4674380 L 23.513836,7.5094093 L 18.709677,12.094084 L 19.754059,18.554306 L 13.905518,15.428392 L 8.0569771,18.554306 L 9.1013590,12.094084 L 4.2972005,7.5094093 L 10.772370,6.4674380 L 14.114394,0.63239827 z "
     id="path2944" />
  <path
     style="stroke-opacity:1.0000000;fill:none;fill-rule:nonzero;stroke:#000000;stroke-width:1.0000000;stroke-linecap:round;stroke-linejoin:round;stroke-miterlimit:4.0000000;stroke-dasharray:none"
     d="M 14.124555,0.89781713 L 16.972040,6.5498383 L 23.277186,7.5591278 L 18.599175,12.000002 L 19.616134,18.257597 L 13.921163,15.229728 L 8.2261931,18.257597 L 9.2431521,12.000002 L 4.5651407,7.5591278 L 10.870286,6.5498383 L 14.124555,0.89781713 z "
     id="path70" />
  <path
     style="fill:#f6f623;fill-rule:nonzero;stroke:none;stroke-miterlimit:4.0000000"
     d="M 14.124555,0.89781713 L 16.972040,6.5498383 L 23.277186,7.5591278 L 18.599175,12.000002 L 19.616134,18.257597 L 13.921163,15.229728 L 8.2261931,18.257597 L 9.2431521,12.000002 L 4.5651407,7.5591278 L 10.870286,6.5498383 L 14.124555,0.89781713 z "
     id="path72" />
  <path
     style="opacity:0.49999997;fill:#ffffff;fill-rule:nonzero;stroke:none;stroke-miterlimit:4.0000000"
     d="M 14.124555,0.89781713 L 14.124555,9.5777068 L 11.277070,6.5498383 L 14.124555,0.89781713 z "
     id="path74" />
  <path
     style="opacity:0.059999947;fill-rule:nonzero;stroke:none;stroke-miterlimit:4.0000000"
     d="M 14.124555,0.89781713 L 14.124555,9.5777068 L 16.972040,6.5498383 L 14.124555,0.89781713 z "
     id="path76" />
  <path
     style="opacity:0.059999947;fill-rule:nonzero;stroke:none;stroke-miterlimit:4.0000000"
     d="M 8.6329767,18.257597 L 14.327947,9.5777068 L 14.327947,15.229728 L 8.6329767,18.257597 L 8.6329767,18.257597 z "
     id="path78" />
  <path
     style="opacity:0.059999947;fill-rule:nonzero;stroke:none;stroke-miterlimit:4.0000000"
     d="M 18.802567,12.000002 L 14.124555,9.5777068 L 23.277186,7.5591278 L 18.599175,12.000002 L 18.802567,12.000002 z "
     id="path80" />
  <path
     style="opacity:0.49999997;fill:#ffffff;fill-rule:nonzero;stroke:none;stroke-miterlimit:4.0000000"
     d="M 19.819526,18.257597 L 14.124555,9.5777068 L 14.124555,15.229728 L 19.819526,18.257597 z "
     id="path82" />
  <path
     style="opacity:0.49999997;fill:#ffffff;fill-rule:nonzero;stroke:none;stroke-miterlimit:4.0000000"
     d="M 8.6329767,18.257597 L 14.327947,9.5777068 L 9.6499357,12.000002 L 8.6329767,18.257597 L 8.6329767,18.257597 z "
     id="path84" />
  <path
     style="opacity:0.059999947;fill-rule:nonzero;stroke:none;stroke-miterlimit:4.0000000"
     d="M 4.9719243,7.5591278 L 9.6499357,12.000002 L 14.327947,9.5777068 L 5.1753161,7.5591278 L 4.9719243,7.5591278 z "
     id="path86" />
</svg>
