<?xml version="1.0" encoding="UTF-8" standalone="no"?>
<!-- Created with Inkscape (http://www.inkscape.org/) -->
<svg
   xmlns:dc="http://purl.org/dc/elements/1.1/"
   xmlns:cc="http://web.resource.org/cc/"
   xmlns:rdf="http://www.w3.org/1999/02/22-rdf-syntax-ns#"
   xmlns:svg="http://www.w3.org/2000/svg"
   xmlns="http://www.w3.org/2000/svg"
   xmlns:sodipodi="http://sodipodi.sourceforge.net/DTD/sodipodi-0.dtd"
   xmlns:inkscape="http://www.inkscape.org/namespaces/inkscape"
   width="32"
   height="32"
   id="svg2"
   sodipodi:version="0.32"
   inkscape:version="0.44.1"
   sodipodi:docbase="/mnt/vdrsrc/xxv/devlop/XXV-Skins/stone/images/artwork"
   sodipodi:docname="tvm.svg"
   version="1.0"
   inkscape:export-filename="/mnt/vdrsrc/xxv/devlop/XXV-Skins/stone/images/tvm.png"
   inkscape:export-xdpi="68.733635"
   inkscape:export-ydpi="68.733635">
  <defs
     id="defs4" />
  <sodipodi:namedview
     id="base"
     pagecolor="#ffffff"
     bordercolor="#666666"
     borderopacity="1.0"
     inkscape:pageopacity="0.0"
     inkscape:pageshadow="2"
     inkscape:zoom="11.582885"
     inkscape:cx="21.350867"
     inkscape:cy="15.786034"
     inkscape:document-units="px"
     inkscape:current-layer="layer1"
     showguides="true"
     inkscape:guide-bbox="true"
     inkscape:window-width="1186"
     inkscape:window-height="950"
     inkscape:window-x="0"
     inkscape:window-y="0"
     width="32px"
     height="32px" />
  <metadata
     id="metadata7">
    <rdf:RDF>
      <cc:Work
         rdf:about="">
        <dc:format>image/svg+xml</dc:format>
        <dc:type
           rdf:resource="http://purl.org/dc/dcmitype/StillImage" />
      </cc:Work>
    </rdf:RDF>
  </metadata>
  <g
     inkscape:label="Ebene 1"
     inkscape:groupmode="layer"
     id="layer1">
    <g
       transform="matrix(0.482119,0,0,0.482119,-97.24261,-163.2743)"
       id="g11737">
      <path
         sodipodi:nodetypes="ccccccccccc"
         id="path10832"
         d="M 252.38955,378.70117 C 255.46799,387.16734 257.47472,395.6335 257.28285,404.09966 C 251.53846,402.09732 245.43302,396.84559 239.43627,392.57197 C 233.13622,397.90496 226.29862,402.05532 218.63357,404.3853 C 218.07953,394.03544 222.0053,387.04549 223.28728,380.83071 C 216.56302,377.11295 210.95405,371.86998 205.56494,366.81708 C 223.01194,362.73926 226.28065,363.64235 226.22952,363.68962 C 225.69931,357.11791 225.07562,348.88448 226.52468,340.20292 C 238.84679,345.43627 242.77202,353.77958 248.04774,361.6227 L 265.08964,361.50128 C 262.83128,368.49214 257.38065,374.43637 252.38955,378.70117 z "
         style="fill:black;fill-opacity:0.68235294;fill-rule:nonzero;stroke:none;stroke-width:1;stroke-linecap:butt;stroke-linejoin:round;stroke-miterlimit:4;stroke-dasharray:none;stroke-dashoffset:7.3869732;stroke-opacity:0.68235294" />
      <path
         sodipodi:nodetypes="cc"
         id="path10848"
         d="M 233.96533,345.84199 C 233.60854,344.81269 236.21112,342.61715 237.09433,343.07403"
         style="fill:none;fill-opacity:0.50315791;fill-rule:evenodd;stroke:black;stroke-width:0.75;stroke-linecap:butt;stroke-linejoin:miter;stroke-miterlimit:4;stroke-dasharray:none;stroke-opacity:0.68210527" />
    </g>
    <g
       id="g10787"
       transform="matrix(0.482119,0,0,0.482119,-129.2726,-165.1736)">
      <path
         sodipodi:nodetypes="ccccccccccc"
         id="path1882"
         d="M 320.97434,382.64077 C 324.05278,391.10694 326.05951,399.5731 325.86764,408.03926 C 320.12325,406.03692 314.01781,400.78519 308.02106,396.51157 C 301.72101,401.84456 294.88341,405.99492 287.21836,408.3249 C 286.66432,397.97504 290.59009,390.98509 291.87207,384.77031 C 285.14781,381.05255 279.53884,375.80958 274.14973,370.75668 C 291.59673,366.67886 294.86544,367.58195 294.81431,367.62922 C 294.2841,361.05751 293.66041,352.82408 295.10947,344.14252 C 307.43158,349.37587 311.35681,357.71918 316.63253,365.5623 L 333.67443,365.44088 C 331.41607,372.43174 325.96544,378.37597 320.97434,382.64077 z "
         style="fill:red;fill-opacity:1;fill-rule:nonzero;stroke:black;stroke-width:1;stroke-linecap:butt;stroke-linejoin:round;stroke-miterlimit:4;stroke-dasharray:none;stroke-dashoffset:7.3869732;stroke-opacity:1" />
      <path
         sodipodi:nodetypes="cc"
         id="path4543"
         d="M 298.12082,369.31809 L 302.3226,368.39575"
         style="fill:none;fill-opacity:0.75;fill-rule:evenodd;stroke:black;stroke-width:0.75;stroke-linecap:butt;stroke-linejoin:miter;stroke-miterlimit:4;stroke-dasharray:none;stroke-opacity:1" />
      <path
         sodipodi:nodetypes="cc"
         id="path4545"
         d="M 300.5804,368.49823 C 306.12631,375.03 311.12945,378.25584 313.69812,366.65355"
         style="fill:none;fill-opacity:0.75;fill-rule:evenodd;stroke:black;stroke-width:0.75;stroke-linecap:butt;stroke-linejoin:miter;stroke-miterlimit:4;stroke-dasharray:none;stroke-opacity:1" />
      <path
         sodipodi:nodetypes="cc"
         id="path4549"
         d="M 314.55291,366.41527 L 311.61656,366.40239"
         style="fill:none;fill-opacity:0.75;fill-rule:evenodd;stroke:black;stroke-width:0.75;stroke-linecap:butt;stroke-linejoin:miter;stroke-miterlimit:4;stroke-dasharray:none;stroke-opacity:1" />
      <path
         sodipodi:type="arc"
         style="opacity:1;fill:white;fill-opacity:1;fill-rule:nonzero;stroke:black;stroke-width:0.30000001;stroke-linecap:butt;stroke-linejoin:round;stroke-miterlimit:4;stroke-dasharray:none;stroke-dashoffset:7.3869732;stroke-opacity:1"
         id="path4553"
         sodipodi:cx="304.23495"
         sodipodi:cy="361.81619"
         sodipodi:rx="3.4900372"
         sodipodi:ry="6.257998"
         d="M 307.72499 361.81619 A 3.4900372 6.257998 0 1 1  300.74492,361.81619 A 3.4900372 6.257998 0 1 1  307.72499 361.81619 z"
         transform="matrix(0.848111,-0.349002,0.276375,0.970694,-50.23682,115.6382)" />
      <path
         sodipodi:type="arc"
         style="opacity:1;fill:black;fill-opacity:1;fill-rule:nonzero;stroke:black;stroke-width:0.30000001;stroke-linecap:butt;stroke-linejoin:round;stroke-miterlimit:4;stroke-dasharray:none;stroke-dashoffset:7.3869732;stroke-opacity:1"
         id="path5442"
         sodipodi:cx="303.03149"
         sodipodi:cy="364.28329"
         sodipodi:rx="2.16623"
         sodipodi:ry="2.7077875"
         d="M 305.19772,364.28329 A 2.16623,2.7077875 0 1 1 305.18922,364.04355"
         sodipodi:start="0"
         sodipodi:end="6.1945294"
         sodipodi:open="true"
         transform="matrix(0.786419,-0.242853,0.233983,0.969818,-16.00126,83.62433)" />
      <path
         transform="matrix(0.848111,-0.349002,0.276375,0.970694,-54.93032,116.601)"
         d="M 307.72499 361.81619 A 3.4900372 6.257998 0 1 1  300.74492,361.81619 A 3.4900372 6.257998 0 1 1  307.72499 361.81619 z"
         sodipodi:ry="6.257998"
         sodipodi:rx="3.4900372"
         sodipodi:cy="361.81619"
         sodipodi:cx="304.23495"
         id="path4551"
         style="opacity:1;fill:white;fill-opacity:1;fill-rule:nonzero;stroke:black;stroke-width:0.30000001;stroke-linecap:butt;stroke-linejoin:round;stroke-miterlimit:4;stroke-dasharray:none;stroke-dashoffset:7.3869732;stroke-opacity:1"
         sodipodi:type="arc" />
      <path
         transform="matrix(0.786419,-0.242853,0.233983,0.969818,-20.93545,84.5871)"
         sodipodi:open="true"
         sodipodi:end="6.1945294"
         sodipodi:start="0"
         d="M 305.19772,364.28329 A 2.16623,2.7077875 0 1 1 305.18922,364.04355"
         sodipodi:ry="2.7077875"
         sodipodi:rx="2.16623"
         sodipodi:cy="364.28329"
         sodipodi:cx="303.03149"
         id="path4555"
         style="opacity:1;fill:black;fill-opacity:1;fill-rule:nonzero;stroke:black;stroke-width:0.30000001;stroke-linecap:butt;stroke-linejoin:round;stroke-miterlimit:4;stroke-dasharray:none;stroke-dashoffset:7.3869732;stroke-opacity:1"
         sodipodi:type="arc" />
      <path
         sodipodi:nodetypes="cc"
         id="path7214"
         d="M 302.55012,349.78159 C 302.19333,348.75229 304.79591,346.55675 305.67912,347.01363"
         style="fill:none;fill-opacity:0.75;fill-rule:evenodd;stroke:black;stroke-width:0.75;stroke-linecap:butt;stroke-linejoin:miter;stroke-miterlimit:4;stroke-dasharray:none;stroke-opacity:1" />
      <path
         sodipodi:nodetypes="cc"
         id="path7216"
         d="M 296.29213,351.46643 C 296.27999,350.42923 298.86204,349.16995 299.18043,349.3002"
         style="fill:none;fill-opacity:0.75;fill-rule:evenodd;stroke:black;stroke-width:0.75;stroke-linecap:butt;stroke-linejoin:miter;stroke-miterlimit:4;stroke-dasharray:none;stroke-opacity:1" />
    </g>
  </g>
</svg>
