<?xml version="1.0" encoding="UTF-8" standalone="no"?>
<!-- Created with Sodipodi ("http://www.sodipodi.com/") -->
<svg
   xmlns:xml="http://www.w3.org/XML/1998/namespace"
   xmlns:svg="http://www.w3.org/2000/svg"
   xmlns="http://www.w3.org/2000/svg"
   xmlns:sodipodi="http://inkscape.sourceforge.net/DTD/sodipodi-0.dtd"
   xmlns:inkscape="http://www.inkscape.org/namespaces/inkscape"
   sodipodi:docbase="/mnt/vdrsrc/xxv/devlop/XXV-Skins/stone/images/artwork"
   sodipodi:docname="watch.svg"
   inkscape:version="0.41"
   sodipodi:version="0.32"
   id="svg1"
   xml:space="preserve"
   viewBox="0 0 43.8 39"
   height="48pt"
   width="48pt">
  <defs
     id="defs79" />
  <sodipodi:namedview
     inkscape:current-layer="svg1"
     inkscape:window-y="21"
     inkscape:window-x="5"
     inkscape:window-height="758"
     inkscape:window-width="824"
     inkscape:cy="14.625002"
     inkscape:cx="27.374999"
     inkscape:zoom="7.3641026"
     inkscape:pageshadow="2"
     inkscape:pageopacity="0.0"
     borderopacity="1.0"
     bordercolor="#666666"
     pagecolor="#ffffff"
     id="base" />
  <g
     transform="translate(0.218633,0.245333)"
     style="fill-rule:nonzero;stroke:#000000;stroke-miterlimit:4.0000000;"
     id="Layer_x0020_2">
    <path
       id="path5"
       d="M 43.800000,39.000000 L 0.0000000,39.000000 L 0.0000000,0.0000000 L 43.800000,0.0000000 L 43.800000,39.000000 z "
       style="fill:none;stroke:none;" />
  </g>
  <g
     transform="translate(0.568632,0.245333)"
     style="fill-rule:nonzero;stroke:#000000;stroke-miterlimit:4.0000000;"
     id="Layer_x0020_3">
    <path
       id="path10"
       d="M 6.2000000,0.70000000 C 3.8000000,0.70000000 1.8000000,2.6000000 1.8000000,5.0000000 L 1.8000000,34.000000 C 1.8000000,36.400000 3.7000000,38.300000 6.1000000,38.300000 L 37.000000,38.300000 C 39.400000,38.300000 41.300000,36.400000 41.300000,34.000000 L 41.300000,5.0000000 C 41.300000,2.6000000 39.400000,0.70000000 37.000000,0.70000000 L 6.2000000,0.70000000 L 6.2000000,0.70000000 z "
       style="stroke:none;" />
    <linearGradient
       y2="36.032799"
       x2="31.081301"
       y1="3.7319000"
       x1="12.487300"
       gradientUnits="userSpaceOnUse"
       id="aigrd1">
      <stop
         id="stop14"
         style="stop-color:#D2D2D2"
         offset="0" />
      <stop
         id="stop16"
         style="stop-color:#EDEDED"
         offset="1" />
    </linearGradient>
    <path
       id="path19"
       d="M 39.100000,33.300000 C 39.100000,34.900000 37.800000,36.200000 36.200000,36.200000 L 6.9000000,36.200000 C 5.3000000,36.200000 4.0000000,34.900000 4.0000000,33.300000 L 4.0000000,5.7000000 C 4.0000000,4.1000000 5.3000000,2.8000000 6.9000000,2.8000000 L 36.200000,2.8000000 C 37.800000,2.8000000 39.100000,4.1000000 39.100000,5.7000000 L 39.100000,33.300000 L 39.100000,33.300000 z "
       style="fill:url(#aigrd1);stroke:none;" />
    <linearGradient
       y2="22.576900"
       x2="21.916800"
       y1="30.341299"
       x1="21.877001"
       gradientUnits="userSpaceOnUse"
       id="aigrd2">
      <stop
         id="stop23"
         style="stop-color:#163069"
         offset="0" />
      <stop
         id="stop25"
         style="stop-color:#83A1CB"
         offset="1" />
    </linearGradient>
    <path
       id="path28"
       d="M 36.600000,29.600000 L 7.3000000,29.600000 L 7.3000000,9.7000000 L 36.600000,9.7000000 L 36.600000,29.600000 L 36.600000,29.600000 z "
       style="fill:url(#aigrd2);stroke:none;" />
    <path
       id="path30"
       d="M 5.2000000,6.3000000 L 4.6000000,35.100000 C 4.2000000,34.600000 4.0000000,33.700000 4.0000000,33.700000 L 4.0000000,5.3000000 C 4.0000000,5.3000000 4.0000000,4.6000000 4.6000000,3.7000000 C 5.3000000,2.8000000 6.4000000,2.8000000 6.4000000,2.8000000 L 31.900000,2.8000000 L 7.4000000,4.0000000 C 6.4000000,4.0000000 5.9000000,4.5000000 5.7000000,4.7000000 C 5.5000000,5.0000000 5.2000000,5.6000000 5.2000000,6.3000000 z "
       style="fill:#fcfcfc;stroke:none;" />
    <path
       id="path32"
       d="M 37.900000,32.600000 L 38.600000,4.0000000 C 39.000000,4.4000000 39.200000,5.4000000 39.200000,5.4000000 L 39.200000,33.700000 C 39.200000,33.700000 39.200000,34.400000 38.600000,35.300000 C 37.900000,36.200000 36.700000,36.300000 36.700000,36.300000 L 11.400000,36.300000 L 35.900000,34.900000 C 36.900000,34.900000 37.400000,34.400000 37.600000,34.200000 C 37.800000,34.000000 38.100000,33.300000 38.100000,32.700000 L 37.900000,32.600000 z "
       style="fill:#bebebe;stroke:none;" />
    <path
       id="path34"
       d="M 36.600000,9.7000000 L 37.200000,9.0000000 L 6.6000000,8.9000000 L 6.6000000,30.300000 L 7.3000000,29.500000 L 7.3000000,9.7000000 L 36.600000,9.7000000 z "
       style="fill:#bebebe;stroke:none;" />
    <path
       id="path36"
       d="M 6.6000000,30.300000 L 37.200000,30.200000 L 37.200000,9.0000000 L 36.500000,9.7000000 L 36.500000,29.600000 L 7.3000000,29.600000 L 6.6000000,30.400000 L 6.6000000,30.300000 z "
       style="fill:#ffffff;stroke:none;" />
    <linearGradient
       y2="7.1090999"
       x2="21.932600"
       y1="24.627399"
       x1="21.932600"
       gradientUnits="userSpaceOnUse"
       id="aigrd3">
      <stop
         id="stop40"
         style="stop-color:#D0D6E5"
         offset="0" />
      <stop
         id="stop42"
         style="stop-color:#093A80"
         offset="1" />
    </linearGradient>
    <path
       id="path45"
       d="M 7.6000000,9.9000000 L 36.300000,9.9000000 L 36.300000,22.000000 L 7.6000000,22.000000 L 7.6000000,9.9000000 z "
       style="fill:url(#aigrd3);stroke:none;" />
    <g
       id="g47">
      <g
         id="g49">
        <path
           id="path51"
           d="M 18.400000,15.400000 C 18.400000,17.600000 16.600000,19.500000 14.300000,19.500000 C 12.100000,19.500000 10.200000,17.700000 10.200000,15.400000 C 10.200000,13.200000 12.000000,11.300000 14.300000,11.300000 C 16.500000,11.300000 18.400000,13.100000 18.400000,15.400000 z "
           style="opacity:0.049999956;fill:#e8f52f;stroke:none;" />
        <path
           id="path53"
           d="M 18.000000,15.400000 C 18.000000,17.400000 16.400000,19.100000 14.300000,19.100000 C 12.300000,19.100000 10.600000,17.500000 10.600000,15.400000 C 10.600000,13.400000 12.200000,11.700000 14.300000,11.700000 C 16.300000,11.700000 18.000000,13.300000 18.000000,15.400000 L 18.000000,15.400000 z "
           style="opacity:0.20829995;fill:#ecf751;stroke:none;" />
        <path
           id="path55"
           d="M 17.600000,15.400000 C 17.600000,17.200000 16.100000,18.700000 14.300000,18.700000 C 12.500000,18.700000 11.000000,17.200000 11.000000,15.400000 C 11.000000,13.600000 12.500000,12.100000 14.300000,12.100000 C 16.100000,12.100000 17.600000,13.600000 17.600000,15.400000 L 17.600000,15.400000 z "
           style="opacity:0.36669996;fill:#f0f972;stroke:none;" />
        <path
           id="path57"
           d="M 17.200000,15.400000 C 17.200000,17.000000 15.900000,18.300000 14.300000,18.300000 C 12.700000,18.300000 11.400000,17.000000 11.400000,15.400000 C 11.400000,13.800000 12.700000,12.500000 14.300000,12.500000 C 15.900000,12.500000 17.200000,13.800000 17.200000,15.400000 z "
           style="opacity:0.52499998;fill:#f4fa95;stroke:none;" />
        <path
           id="path59"
           d="M 16.800000,15.400000 C 16.800000,16.800000 15.700000,17.900000 14.300000,17.900000 C 12.900000,17.900000 11.800000,16.800000 11.800000,15.400000 C 11.800000,14.000000 12.900000,12.900000 14.300000,12.900000 C 15.700000,12.900000 16.800000,14.000000 16.800000,15.400000 L 16.800000,15.400000 z "
           style="opacity:0.68330002;fill:#f7fcb7;stroke:none;" />
        <path
           id="path61"
           d="M 16.400000,15.400000 C 16.400000,16.600000 15.400000,17.500000 14.300000,17.500000 C 13.200000,17.500000 12.200000,16.500000 12.200000,15.400000 C 12.200000,14.300000 13.200000,13.300000 14.300000,13.300000 C 15.400000,13.300000 16.400000,14.300000 16.400000,15.400000 z "
           style="opacity:0.84170002;fill:#fbfddb;stroke:none;" />
        <path
           id="path63"
           d="M 16.000000,15.400000 C 16.000000,16.400000 15.200000,17.200000 14.200000,17.200000 C 13.200000,17.200000 12.400000,16.400000 12.400000,15.400000 C 12.400000,14.400000 13.200000,13.600000 14.200000,13.600000 C 15.200000,13.600000 16.000000,14.400000 16.000000,15.400000 L 16.000000,15.400000 z "
           style="fill:#ffffff;stroke:none;" />
      </g>
    </g>
    <path
       id="path67"
       d="M 24.000000,23.700000 L 31.300000,23.700000 L 32.700000,24.100000 L 30.300000,24.100000 C 30.300000,24.100000 32.700000,24.300000 33.900000,25.800000 C 35.100000,27.200000 32.500000,28.900000 32.500000,28.900000 C 32.500000,28.900000 32.500000,28.900000 32.500000,28.900000 C 32.400000,28.600000 31.800000,26.200000 30.600000,25.200000 C 29.700000,24.400000 28.700000,24.200000 28.700000,24.200000 L 24.000000,24.200000 L 24.000000,23.800000 L 24.000000,23.700000 z "
       style="opacity:0.29999998;stroke:none;" />
    <path
       id="path69"
       d="M 28.800000,24.300000 L 24.600000,24.300000 L 32.400000,28.700000 L 28.800000,24.300000 L 28.800000,24.300000 z "
       style="opacity:0.29999998;stroke:none;" />
    <path
       id="path71"
       d="M 24.000000,23.800000 L 31.300000,23.800000 L 32.400000,23.100000 L 30.000000,23.100000 C 30.000000,23.100000 32.200000,22.700000 32.500000,20.200000 C 32.800000,17.700000 29.100000,14.900000 29.100000,14.900000 C 29.100000,14.900000 29.100000,14.900000 29.100000,15.000000 C 29.200000,15.600000 30.200000,19.800000 29.500000,21.400000 C 29.200000,22.800000 28.300000,23.100000 28.300000,23.100000 L 23.700000,23.100000 L 23.900000,23.800000 L 24.000000,23.800000 z "
       style="fill:#515151;stroke:none;" />
    <path
       id="path73"
       d="M 28.400000,22.700000 L 24.200000,22.700000 L 29.200000,15.100000 L 28.400000,22.700000 z "
       style="fill:#515151;stroke:none;" />
    <path
       id="path75"
       d="M 7.3000000,9.7000000 L 7.3000000,29.600000 L 36.600000,29.600000 L 36.600000,9.7000000 L 7.3000000,9.7000000 z M 36.000000,29.000000 L 8.0000000,29.000000 L 8.0000000,10.300000 L 36.000000,10.300000 L 36.000000,29.000000 z "
       style="stroke:none;" />
  </g>
</svg>
